<svg width="1570" height="432" viewBox="0 0 1570 432" fill="none" xmlns="http://www.w3.org/2000/svg">
    <line x1="1481.5" y1="86" x2="1481.5" y2="445" stroke="url(#paint0_linear_654_1203)" stroke-width="3"/>
    <line x1="1568.5" y1="86" x2="1568.5" y2="445" stroke="url(#paint1_linear_654_1203)" stroke-width="3"/>
    <line x1="1541" y1="87.5" x2="-1.51071e-07" y2="87.4999" stroke="url(#paint2_linear_654_1203)" stroke-width="3"/>
    <line x1="1525" y1="1.5" y2="1.5" stroke="url(#paint3_linear_654_1203)" stroke-width="3"/>
    <path d="M1423.5 1.73047L963.23 462" stroke="url(#paint4_linear_654_1203)" stroke-width="3"/>
    <path d="M1565 149.5L1183 531.5" stroke="url(#paint5_linear_654_1203)" stroke-width="3"/>
    <path d="M1336.62 88.1357L1423.92 1.5H1524.86C1548.95 1.5 1568.5 21.0323 1568.5 45.1398V146.067L1481.2 233.378V117.631C1481.2 101.265 1467.89 88.0366 1451.52 88.1357H1336.62Z" fill="#002920" stroke="url(#paint6_linear_654_1203)" stroke-width="3"/>
    <defs>
    <linearGradient id="paint0_linear_654_1203" x1="1479" y1="96.1796" x2="1479" y2="445" gradientUnits="userSpaceOnUse">
    <stop stop-color="#002920"/>
    <stop offset="0.488129" stop-color="white"/>
    <stop offset="1" stop-color="#002920"/>
    </linearGradient>
    <linearGradient id="paint1_linear_654_1203" x1="1566" y1="96.1796" x2="1566" y2="445" gradientUnits="userSpaceOnUse">
    <stop stop-color="#002920"/>
    <stop offset="0.488129" stop-color="white"/>
    <stop offset="1" stop-color="#002920"/>
    </linearGradient>
    <linearGradient id="paint2_linear_654_1203" x1="30.1729" y1="85.0928" x2="1541" y2="85.0927" gradientUnits="userSpaceOnUse">
    <stop stop-color="#002920"/>
    <stop offset="0.03125" stop-color="#002920"/>
    <stop offset="0.390625" stop-color="white"/>
    </linearGradient>
    <linearGradient id="paint3_linear_654_1203" x1="29.8596" y1="-0.90705" x2="1525" y2="-0.907366" gradientUnits="userSpaceOnUse">
    <stop stop-color="#002920"/>
    <stop offset="0.03125" stop-color="#002920"/>
    <stop offset="0.390625" stop-color="white"/>
    </linearGradient>
    <linearGradient id="paint4_linear_654_1203" x1="0" y1="0" x2="0" y2="0" gradientUnits="userSpaceOnUse">
    <stop stop-color="white"/>
    <stop offset="1" stop-color="#002920"/>
    </linearGradient>
    <linearGradient id="paint5_linear_654_1203" x1="0" y1="0" x2="0" y2="0" gradientUnits="userSpaceOnUse">
    <stop stop-color="white"/>
    <stop offset="1" stop-color="#002920"/>
    </linearGradient>
    <linearGradient id="paint6_linear_654_1203" x1="1451.5" y1="0" x2="1451.5" y2="237" gradientUnits="userSpaceOnUse">
    <stop stop-color="#9BB7E0"/>
    <stop offset="0.0001" stop-color="#8FCFA7"/>
    <stop offset="1" stop-color="#FEC46D"/>
    </linearGradient>
    </defs>
    </svg>
    