<svg width="1121" height="159" viewBox="0 0 1121 159" fill="none" xmlns="http://www.w3.org/2000/svg">
    <mask id="path-1-outside-1_1648_145" maskUnits="userSpaceOnUse" x="3" y="19" width="1111" height="110" fill="black">
    <rect fill="white" x="3" y="19" width="1111" height="110"/>
    <path d="M54.7879 127.831C45.1989 127.831 36.5688 125.826 28.8977 121.816C21.3137 117.719 15.3423 112.052 10.9837 104.817C6.6251 97.5818 4.44579 89.3876 4.44579 80.2345C4.44579 71.0814 6.6251 62.8872 10.9837 55.6519C15.3423 48.4165 21.3137 42.7939 28.8977 38.784C36.5688 34.6869 45.1989 32.6383 54.7879 32.6383C63.1564 32.6383 70.6968 34.1203 77.4091 37.0841C84.1214 40.048 89.7004 44.3194 94.1462 49.8985L77.6706 64.805C71.7429 57.6568 64.5512 54.0828 56.0955 54.0828C51.1266 54.0828 46.6808 55.1724 42.7581 57.3517C38.9225 59.531 35.915 62.6257 33.7357 66.6356C31.6436 70.5583 30.5975 75.0913 30.5975 80.2345C30.5975 85.3777 31.6436 89.9542 33.7357 93.9641C35.915 97.8869 38.9225 100.938 42.7581 103.117C46.6808 105.297 51.1266 106.386 56.0955 106.386C64.5512 106.386 71.7429 102.812 77.6706 95.664L94.1462 110.57C89.7004 116.15 84.1214 120.421 77.4091 123.385C70.6968 126.349 63.1564 127.831 54.7879 127.831ZM137.908 127.177C130.324 127.177 123.481 125.608 117.379 122.47C111.277 119.331 106.483 114.973 102.996 109.394C99.5962 103.815 97.8963 97.4946 97.8963 90.4337C97.8963 83.4599 99.5962 77.1834 102.996 71.6044C106.483 66.0254 111.234 61.7103 117.249 58.6593C123.351 55.5211 130.237 53.952 137.908 53.952C145.58 53.952 152.466 55.5211 158.568 58.6593C164.67 61.7103 169.421 66.0254 172.821 71.6044C176.221 77.0963 177.921 83.3727 177.921 90.4337C177.921 97.4946 176.221 103.815 172.821 109.394C169.421 114.973 164.67 119.331 158.568 122.47C152.466 125.608 145.58 127.177 137.908 127.177ZM137.908 107.432C142.267 107.432 145.841 105.95 148.631 102.986C151.42 99.9354 152.815 95.7512 152.815 90.4337C152.815 85.2033 151.42 81.1062 148.631 78.1423C145.841 75.1785 142.267 73.6966 137.908 73.6966C133.55 73.6966 129.976 75.1785 127.186 78.1423C124.397 81.1062 123.002 85.2033 123.002 90.4337C123.002 95.7512 124.397 99.9354 127.186 102.986C129.976 105.95 133.55 107.432 137.908 107.432ZM281.745 53.952C290.462 53.952 297.392 56.5672 302.536 61.7975C307.766 67.0279 310.381 74.917 310.381 85.4648V126H285.537V89.5183C285.537 84.5495 284.578 80.8883 282.66 78.5346C280.83 76.181 278.215 75.0041 274.815 75.0041C271.066 75.0041 268.059 76.3117 265.792 78.9269C263.526 81.5421 262.393 85.5084 262.393 90.8259V126H237.549V89.5183C237.549 79.8422 233.975 75.0041 226.826 75.0041C222.991 75.0041 219.94 76.3117 217.673 78.9269C215.407 81.5421 214.274 85.5084 214.274 90.8259V126H189.429V55.1288H213.097V62.5821C215.712 59.7054 218.807 57.5697 222.381 56.1749C226.042 54.693 230.008 53.952 234.28 53.952C239.248 53.952 243.694 54.8673 247.617 56.6979C251.54 58.5285 254.722 61.3181 257.162 65.0665C259.952 61.4924 263.482 58.7465 267.754 56.8287C272.025 54.9109 276.689 53.952 281.745 53.952ZM418.378 53.952C427.095 53.952 434.025 56.5672 439.168 61.7975C444.398 67.0279 447.014 74.917 447.014 85.4648V126H422.17V89.5183C422.17 84.5495 421.211 80.8883 419.293 78.5346C417.462 76.181 414.847 75.0041 411.447 75.0041C407.699 75.0041 404.691 76.3117 402.425 78.9269C400.158 81.5421 399.025 85.5084 399.025 90.8259V126H374.181V89.5183C374.181 79.8422 370.607 75.0041 363.459 75.0041C359.623 75.0041 356.572 76.3117 354.306 78.9269C352.039 81.5421 350.906 85.5084 350.906 90.8259V126H326.062V55.1288H349.729V62.5821C352.344 59.7054 355.439 57.5697 359.013 56.1749C362.674 54.693 366.641 53.952 370.912 53.952C375.881 53.952 380.327 54.8673 384.25 56.6979C388.172 58.5285 391.354 61.3181 393.795 65.0665C396.584 61.4924 400.115 58.7465 404.386 56.8287C408.658 54.9109 413.322 53.952 418.378 53.952ZM537.227 55.1288V126H513.56V118.416C510.944 121.293 507.806 123.472 504.145 124.954C500.484 126.436 496.605 127.177 492.507 127.177C483.354 127.177 476.032 124.474 470.54 119.07C465.135 113.665 462.433 105.558 462.433 94.7487V55.1288H487.277V90.6952C487.277 96.0127 488.28 99.8919 490.285 102.333C492.29 104.774 495.21 105.994 499.045 105.994C502.968 105.994 506.15 104.643 508.591 101.94C511.119 99.1509 512.383 94.923 512.383 89.2568V55.1288H537.227ZM599.387 53.952C608.192 53.952 615.253 56.5672 620.57 61.7975C625.975 67.0279 628.677 74.917 628.677 85.4648V126H603.833V89.5183C603.833 79.8422 599.954 75.0041 592.196 75.0041C587.924 75.0041 584.481 76.3989 581.866 79.1884C579.338 81.9779 578.074 86.1622 578.074 91.7412V126H553.23V55.1288H576.897V62.8436C579.686 59.9669 582.999 57.7876 586.834 56.3056C590.67 54.7365 594.854 53.952 599.387 53.952ZM644.275 55.1288H669.119V126H644.275V55.1288ZM656.697 47.2833C652.164 47.2833 648.503 46.0193 645.714 43.4913C642.924 40.9633 641.529 37.8251 641.529 34.0767C641.529 30.3283 642.924 27.1901 645.714 24.6621C648.503 22.1341 652.164 20.8701 656.697 20.8701C661.23 20.8701 664.892 22.0905 667.681 24.5313C670.471 26.885 671.865 29.936 671.865 33.6844C671.865 37.6072 670.471 40.8761 667.681 43.4913C664.892 46.0193 661.23 47.2833 656.697 47.2833ZM721.485 127.177C713.64 127.177 706.622 125.608 700.433 122.47C694.244 119.331 689.406 114.973 685.919 109.394C682.519 103.815 680.819 97.4946 680.819 90.4337C680.819 83.3727 682.519 77.0963 685.919 71.6044C689.406 66.0254 694.244 61.7103 700.433 58.6593C706.622 55.5211 713.64 53.952 721.485 53.952C729.505 53.952 736.435 55.6954 742.276 59.1823C748.116 62.5821 752.257 67.333 754.698 73.435L735.476 83.2419C732.251 76.8783 727.544 73.6966 721.354 73.6966C716.909 73.6966 713.204 75.1785 710.24 78.1423C707.363 81.1062 705.925 85.2033 705.925 90.4337C705.925 95.7512 707.363 99.9354 710.24 102.986C713.204 105.95 716.909 107.432 721.354 107.432C727.544 107.432 732.251 104.25 735.476 97.8869L754.698 107.694C752.257 113.796 748.116 118.59 742.276 122.077C736.435 125.477 729.505 127.177 721.485 127.177ZM838.211 55.1288V126H814.543V118.939C809.923 124.431 802.95 127.177 793.622 127.177C787.171 127.177 781.287 125.695 775.97 122.731C770.739 119.68 766.555 115.365 763.417 109.786C760.366 104.207 758.84 97.7561 758.84 90.4337C758.84 83.1112 760.366 76.704 763.417 71.2121C766.555 65.6331 770.739 61.3617 775.97 58.3978C781.287 55.4339 787.171 53.952 793.622 53.952C801.991 53.952 808.572 56.3928 813.367 61.2745V55.1288H838.211ZM798.852 107.432C803.211 107.432 806.785 105.95 809.575 102.986C812.364 99.9354 813.759 95.7512 813.759 90.4337C813.759 85.2033 812.364 81.1062 809.575 78.1423C806.785 75.1785 803.211 73.6966 798.852 73.6966C794.494 73.6966 790.92 75.1785 788.13 78.1423C785.341 81.1062 783.946 85.2033 783.946 90.4337C783.946 95.7512 785.341 99.9354 788.13 102.986C790.92 105.95 794.494 107.432 798.852 107.432ZM899.839 123.123C897.747 124.431 895.175 125.433 892.124 126.131C889.16 126.828 885.979 127.177 882.579 127.177C873.339 127.177 866.234 124.91 861.265 120.377C856.383 115.844 853.943 109.089 853.943 100.11V39.307H878.787V57.744H894.87V76.3117H878.787V99.8483C878.787 102.463 879.441 104.468 880.748 105.863C882.056 107.258 883.843 107.955 886.109 107.955C888.986 107.955 891.514 107.214 893.693 105.732L899.839 123.123ZM909.368 55.1288H934.212V126H909.368V55.1288ZM921.79 47.2833C917.257 47.2833 913.596 46.0193 910.806 43.4913C908.017 40.9633 906.622 37.8251 906.622 34.0767C906.622 30.3283 908.017 27.1901 910.806 24.6621C913.596 22.1341 917.257 20.8701 921.79 20.8701C926.323 20.8701 929.984 22.0905 932.774 24.5313C935.563 26.885 936.958 29.936 936.958 33.6844C936.958 37.6072 935.563 40.8761 932.774 43.4913C929.984 46.0193 926.323 47.2833 921.79 47.2833ZM985.924 127.177C978.34 127.177 971.497 125.608 965.395 122.47C959.293 119.331 954.498 114.973 951.012 109.394C947.612 103.815 945.912 97.4946 945.912 90.4337C945.912 83.4599 947.612 77.1834 951.012 71.6044C954.498 66.0254 959.249 61.7103 965.264 58.6593C971.366 55.5211 978.253 53.952 985.924 53.952C993.595 53.952 1000.48 55.5211 1006.58 58.6593C1012.69 61.7103 1017.44 66.0254 1020.84 71.6044C1024.24 77.0963 1025.94 83.3727 1025.94 90.4337C1025.94 97.4946 1024.24 103.815 1020.84 109.394C1017.44 114.973 1012.69 119.331 1006.58 122.47C1000.48 125.608 993.595 127.177 985.924 127.177ZM985.924 107.432C990.283 107.432 993.857 105.95 996.646 102.986C999.436 99.9354 1000.83 95.7512 1000.83 90.4337C1000.83 85.2033 999.436 81.1062 996.646 78.1423C993.857 75.1785 990.283 73.6966 985.924 73.6966C981.565 73.6966 977.991 75.1785 975.202 78.1423C972.412 81.1062 971.018 85.2033 971.018 90.4337C971.018 95.7512 972.412 99.9354 975.202 102.986C977.991 105.95 981.565 107.432 985.924 107.432ZM1083.6 53.952C1092.41 53.952 1099.47 56.5672 1104.79 61.7975C1110.19 67.0279 1112.89 74.917 1112.89 85.4648V126H1088.05V89.5183C1088.05 79.8422 1084.17 75.0041 1076.41 75.0041C1072.14 75.0041 1068.7 76.3989 1066.08 79.1884C1063.55 81.9779 1062.29 86.1622 1062.29 91.7412V126H1037.45V55.1288H1061.11V62.8436C1063.9 59.9669 1067.21 57.7876 1071.05 56.3056C1074.89 54.7365 1079.07 53.952 1083.6 53.952Z"/>
    </mask>
    <path d="M54.7879 127.831C45.1989 127.831 36.5688 125.826 28.8977 121.816C21.3137 117.719 15.3423 112.052 10.9837 104.817C6.6251 97.5818 4.44579 89.3876 4.44579 80.2345C4.44579 71.0814 6.6251 62.8872 10.9837 55.6519C15.3423 48.4165 21.3137 42.7939 28.8977 38.784C36.5688 34.6869 45.1989 32.6383 54.7879 32.6383C63.1564 32.6383 70.6968 34.1203 77.4091 37.0841C84.1214 40.048 89.7004 44.3194 94.1462 49.8985L77.6706 64.805C71.7429 57.6568 64.5512 54.0828 56.0955 54.0828C51.1266 54.0828 46.6808 55.1724 42.7581 57.3517C38.9225 59.531 35.915 62.6257 33.7357 66.6356C31.6436 70.5583 30.5975 75.0913 30.5975 80.2345C30.5975 85.3777 31.6436 89.9542 33.7357 93.9641C35.915 97.8869 38.9225 100.938 42.7581 103.117C46.6808 105.297 51.1266 106.386 56.0955 106.386C64.5512 106.386 71.7429 102.812 77.6706 95.664L94.1462 110.57C89.7004 116.15 84.1214 120.421 77.4091 123.385C70.6968 126.349 63.1564 127.831 54.7879 127.831ZM137.908 127.177C130.324 127.177 123.481 125.608 117.379 122.47C111.277 119.331 106.483 114.973 102.996 109.394C99.5962 103.815 97.8963 97.4946 97.8963 90.4337C97.8963 83.4599 99.5962 77.1834 102.996 71.6044C106.483 66.0254 111.234 61.7103 117.249 58.6593C123.351 55.5211 130.237 53.952 137.908 53.952C145.58 53.952 152.466 55.5211 158.568 58.6593C164.67 61.7103 169.421 66.0254 172.821 71.6044C176.221 77.0963 177.921 83.3727 177.921 90.4337C177.921 97.4946 176.221 103.815 172.821 109.394C169.421 114.973 164.67 119.331 158.568 122.47C152.466 125.608 145.58 127.177 137.908 127.177ZM137.908 107.432C142.267 107.432 145.841 105.95 148.631 102.986C151.42 99.9354 152.815 95.7512 152.815 90.4337C152.815 85.2033 151.42 81.1062 148.631 78.1423C145.841 75.1785 142.267 73.6966 137.908 73.6966C133.55 73.6966 129.976 75.1785 127.186 78.1423C124.397 81.1062 123.002 85.2033 123.002 90.4337C123.002 95.7512 124.397 99.9354 127.186 102.986C129.976 105.95 133.55 107.432 137.908 107.432ZM281.745 53.952C290.462 53.952 297.392 56.5672 302.536 61.7975C307.766 67.0279 310.381 74.917 310.381 85.4648V126H285.537V89.5183C285.537 84.5495 284.578 80.8883 282.66 78.5346C280.83 76.181 278.215 75.0041 274.815 75.0041C271.066 75.0041 268.059 76.3117 265.792 78.9269C263.526 81.5421 262.393 85.5084 262.393 90.8259V126H237.549V89.5183C237.549 79.8422 233.975 75.0041 226.826 75.0041C222.991 75.0041 219.94 76.3117 217.673 78.9269C215.407 81.5421 214.274 85.5084 214.274 90.8259V126H189.429V55.1288H213.097V62.5821C215.712 59.7054 218.807 57.5697 222.381 56.1749C226.042 54.693 230.008 53.952 234.28 53.952C239.248 53.952 243.694 54.8673 247.617 56.6979C251.54 58.5285 254.722 61.3181 257.162 65.0665C259.952 61.4924 263.482 58.7465 267.754 56.8287C272.025 54.9109 276.689 53.952 281.745 53.952ZM418.378 53.952C427.095 53.952 434.025 56.5672 439.168 61.7975C444.398 67.0279 447.014 74.917 447.014 85.4648V126H422.17V89.5183C422.17 84.5495 421.211 80.8883 419.293 78.5346C417.462 76.181 414.847 75.0041 411.447 75.0041C407.699 75.0041 404.691 76.3117 402.425 78.9269C400.158 81.5421 399.025 85.5084 399.025 90.8259V126H374.181V89.5183C374.181 79.8422 370.607 75.0041 363.459 75.0041C359.623 75.0041 356.572 76.3117 354.306 78.9269C352.039 81.5421 350.906 85.5084 350.906 90.8259V126H326.062V55.1288H349.729V62.5821C352.344 59.7054 355.439 57.5697 359.013 56.1749C362.674 54.693 366.641 53.952 370.912 53.952C375.881 53.952 380.327 54.8673 384.25 56.6979C388.172 58.5285 391.354 61.3181 393.795 65.0665C396.584 61.4924 400.115 58.7465 404.386 56.8287C408.658 54.9109 413.322 53.952 418.378 53.952ZM537.227 55.1288V126H513.56V118.416C510.944 121.293 507.806 123.472 504.145 124.954C500.484 126.436 496.605 127.177 492.507 127.177C483.354 127.177 476.032 124.474 470.54 119.07C465.135 113.665 462.433 105.558 462.433 94.7487V55.1288H487.277V90.6952C487.277 96.0127 488.28 99.8919 490.285 102.333C492.29 104.774 495.21 105.994 499.045 105.994C502.968 105.994 506.15 104.643 508.591 101.94C511.119 99.1509 512.383 94.923 512.383 89.2568V55.1288H537.227ZM599.387 53.952C608.192 53.952 615.253 56.5672 620.57 61.7975C625.975 67.0279 628.677 74.917 628.677 85.4648V126H603.833V89.5183C603.833 79.8422 599.954 75.0041 592.196 75.0041C587.924 75.0041 584.481 76.3989 581.866 79.1884C579.338 81.9779 578.074 86.1622 578.074 91.7412V126H553.23V55.1288H576.897V62.8436C579.686 59.9669 582.999 57.7876 586.834 56.3056C590.67 54.7365 594.854 53.952 599.387 53.952ZM644.275 55.1288H669.119V126H644.275V55.1288ZM656.697 47.2833C652.164 47.2833 648.503 46.0193 645.714 43.4913C642.924 40.9633 641.529 37.8251 641.529 34.0767C641.529 30.3283 642.924 27.1901 645.714 24.6621C648.503 22.1341 652.164 20.8701 656.697 20.8701C661.23 20.8701 664.892 22.0905 667.681 24.5313C670.471 26.885 671.865 29.936 671.865 33.6844C671.865 37.6072 670.471 40.8761 667.681 43.4913C664.892 46.0193 661.23 47.2833 656.697 47.2833ZM721.485 127.177C713.64 127.177 706.622 125.608 700.433 122.47C694.244 119.331 689.406 114.973 685.919 109.394C682.519 103.815 680.819 97.4946 680.819 90.4337C680.819 83.3727 682.519 77.0963 685.919 71.6044C689.406 66.0254 694.244 61.7103 700.433 58.6593C706.622 55.5211 713.64 53.952 721.485 53.952C729.505 53.952 736.435 55.6954 742.276 59.1823C748.116 62.5821 752.257 67.333 754.698 73.435L735.476 83.2419C732.251 76.8783 727.544 73.6966 721.354 73.6966C716.909 73.6966 713.204 75.1785 710.24 78.1423C707.363 81.1062 705.925 85.2033 705.925 90.4337C705.925 95.7512 707.363 99.9354 710.24 102.986C713.204 105.95 716.909 107.432 721.354 107.432C727.544 107.432 732.251 104.25 735.476 97.8869L754.698 107.694C752.257 113.796 748.116 118.59 742.276 122.077C736.435 125.477 729.505 127.177 721.485 127.177ZM838.211 55.1288V126H814.543V118.939C809.923 124.431 802.95 127.177 793.622 127.177C787.171 127.177 781.287 125.695 775.97 122.731C770.739 119.68 766.555 115.365 763.417 109.786C760.366 104.207 758.84 97.7561 758.84 90.4337C758.84 83.1112 760.366 76.704 763.417 71.2121C766.555 65.6331 770.739 61.3617 775.97 58.3978C781.287 55.4339 787.171 53.952 793.622 53.952C801.991 53.952 808.572 56.3928 813.367 61.2745V55.1288H838.211ZM798.852 107.432C803.211 107.432 806.785 105.95 809.575 102.986C812.364 99.9354 813.759 95.7512 813.759 90.4337C813.759 85.2033 812.364 81.1062 809.575 78.1423C806.785 75.1785 803.211 73.6966 798.852 73.6966C794.494 73.6966 790.92 75.1785 788.13 78.1423C785.341 81.1062 783.946 85.2033 783.946 90.4337C783.946 95.7512 785.341 99.9354 788.13 102.986C790.92 105.95 794.494 107.432 798.852 107.432ZM899.839 123.123C897.747 124.431 895.175 125.433 892.124 126.131C889.16 126.828 885.979 127.177 882.579 127.177C873.339 127.177 866.234 124.91 861.265 120.377C856.383 115.844 853.943 109.089 853.943 100.11V39.307H878.787V57.744H894.87V76.3117H878.787V99.8483C878.787 102.463 879.441 104.468 880.748 105.863C882.056 107.258 883.843 107.955 886.109 107.955C888.986 107.955 891.514 107.214 893.693 105.732L899.839 123.123ZM909.368 55.1288H934.212V126H909.368V55.1288ZM921.79 47.2833C917.257 47.2833 913.596 46.0193 910.806 43.4913C908.017 40.9633 906.622 37.8251 906.622 34.0767C906.622 30.3283 908.017 27.1901 910.806 24.6621C913.596 22.1341 917.257 20.8701 921.79 20.8701C926.323 20.8701 929.984 22.0905 932.774 24.5313C935.563 26.885 936.958 29.936 936.958 33.6844C936.958 37.6072 935.563 40.8761 932.774 43.4913C929.984 46.0193 926.323 47.2833 921.79 47.2833ZM985.924 127.177C978.34 127.177 971.497 125.608 965.395 122.47C959.293 119.331 954.498 114.973 951.012 109.394C947.612 103.815 945.912 97.4946 945.912 90.4337C945.912 83.4599 947.612 77.1834 951.012 71.6044C954.498 66.0254 959.249 61.7103 965.264 58.6593C971.366 55.5211 978.253 53.952 985.924 53.952C993.595 53.952 1000.48 55.5211 1006.58 58.6593C1012.69 61.7103 1017.44 66.0254 1020.84 71.6044C1024.24 77.0963 1025.94 83.3727 1025.94 90.4337C1025.94 97.4946 1024.24 103.815 1020.84 109.394C1017.44 114.973 1012.69 119.331 1006.58 122.47C1000.48 125.608 993.595 127.177 985.924 127.177ZM985.924 107.432C990.283 107.432 993.857 105.95 996.646 102.986C999.436 99.9354 1000.83 95.7512 1000.83 90.4337C1000.83 85.2033 999.436 81.1062 996.646 78.1423C993.857 75.1785 990.283 73.6966 985.924 73.6966C981.565 73.6966 977.991 75.1785 975.202 78.1423C972.412 81.1062 971.018 85.2033 971.018 90.4337C971.018 95.7512 972.412 99.9354 975.202 102.986C977.991 105.95 981.565 107.432 985.924 107.432ZM1083.6 53.952C1092.41 53.952 1099.47 56.5672 1104.79 61.7975C1110.19 67.0279 1112.89 74.917 1112.89 85.4648V126H1088.05V89.5183C1088.05 79.8422 1084.17 75.0041 1076.41 75.0041C1072.14 75.0041 1068.7 76.3989 1066.08 79.1884C1063.55 81.9779 1062.29 86.1622 1062.29 91.7412V126H1037.45V55.1288H1061.11V62.8436C1063.9 59.9669 1067.21 57.7876 1071.05 56.3056C1074.89 54.7365 1079.07 53.952 1083.6 53.952Z" fill="#002920"/>
    <path d="M28.8977 121.816L28.4223 122.696L28.4344 122.702L28.8977 121.816ZM10.9837 104.817L11.8403 104.301L10.9837 104.817ZM10.9837 55.6519L10.1271 55.1358L10.9837 55.6519ZM28.8977 38.784L29.3651 39.668L29.3688 39.6661L28.8977 38.784ZM77.4091 37.0841L77.0052 37.9989L77.4091 37.0841ZM94.1462 49.8985L94.8171 50.64L95.5136 50.0098L94.9283 49.2753L94.1462 49.8985ZM77.6706 64.805L76.9009 65.4433L77.5673 66.247L78.3415 65.5465L77.6706 64.805ZM42.7581 57.3517L42.2724 56.4775L42.2641 56.4823L42.7581 57.3517ZM33.7357 66.6356L32.8571 66.1581L32.8534 66.165L33.7357 66.6356ZM33.7357 93.9641L32.8491 94.4267L32.8552 94.4383L32.8616 94.4498L33.7357 93.9641ZM42.7581 103.117L42.264 103.987L42.2724 103.991L42.7581 103.117ZM77.6706 95.664L78.3415 94.9225L77.5673 94.222L76.9009 95.0257L77.6706 95.664ZM94.1462 110.57L94.9283 111.194L95.5136 110.459L94.8171 109.829L94.1462 110.57ZM77.4091 123.385L77.0052 122.47L77.4091 123.385ZM54.7879 126.831C45.3426 126.831 36.8742 124.857 29.3609 120.929L28.4344 122.702C36.2634 126.794 45.0552 128.831 54.7879 128.831V126.831ZM29.373 120.936C21.9429 116.922 16.1047 111.38 11.8403 104.301L10.1271 105.333C14.58 112.725 20.6844 118.515 28.4224 122.696L29.373 120.936ZM11.8403 104.301C7.58332 97.2345 5.44579 89.2215 5.44579 80.2345H3.44579C3.44579 89.5537 5.66688 97.9291 10.1271 105.333L11.8403 104.301ZM5.44579 80.2345C5.44579 71.2475 7.58332 63.2345 11.8403 56.1679L10.1271 55.1358C5.66688 62.5399 3.44579 70.9153 3.44579 80.2345H5.44579ZM11.8403 56.1679C16.1035 49.0909 21.9392 43.5944 29.3651 39.668L28.4302 37.9C20.6881 41.9935 14.5811 47.7422 10.1271 55.1358L11.8403 56.1679ZM29.3688 39.6661C36.8805 35.6541 45.346 33.6383 54.7879 33.6383V31.6383C45.0518 31.6383 36.2571 33.7197 28.4265 37.9019L29.3688 39.6661ZM54.7879 33.6383C63.0368 33.6383 70.4368 35.0986 77.0052 37.9989L77.813 36.1693C70.9568 33.1419 63.276 31.6383 54.7879 31.6383V33.6383ZM77.0052 37.9989C83.5741 40.8995 89.0219 45.0726 93.3642 50.5217L94.9283 49.2753C90.3789 43.5662 84.6687 39.1965 77.813 36.1693L77.0052 37.9989ZM93.4753 49.1569L76.9997 64.0634L78.3415 65.5465L94.8171 50.64L93.4753 49.1569ZM78.4404 64.1666C72.3438 56.8149 64.8804 53.0828 56.0955 53.0828V55.0828C64.2219 55.0828 71.142 58.4987 76.9009 65.4433L78.4404 64.1666ZM56.0955 53.0828C50.9753 53.0828 46.3592 54.2071 42.2724 56.4776L43.2437 58.2259C47.0024 56.1377 51.2779 55.0828 56.0955 55.0828V53.0828ZM42.2641 56.4823C38.2604 58.7571 35.1223 61.9901 32.8571 66.1581L34.6143 67.1131C36.7078 63.2612 39.5846 60.305 43.2521 58.2212L42.2641 56.4823ZM32.8534 66.165C30.6727 70.2538 29.5975 74.9531 29.5975 80.2345H31.5975C31.5975 75.2296 32.6145 70.8629 34.6181 67.1062L32.8534 66.165ZM29.5975 80.2345C29.5975 85.5164 30.6728 90.2554 32.8491 94.4267L34.6223 93.5016C32.6143 89.653 31.5975 85.2389 31.5975 80.2345H29.5975ZM32.8616 94.4498C35.1284 98.53 38.2661 101.715 42.2641 103.987L43.2521 102.248C39.5789 100.161 36.7017 97.2438 34.6099 93.4785L32.8616 94.4498ZM42.2724 103.991C46.3592 106.262 50.9753 107.386 56.0955 107.386V105.386C51.2779 105.386 47.0024 104.331 43.2437 102.243L42.2724 103.991ZM56.0955 107.386C64.8804 107.386 72.3438 103.654 78.4404 96.3023L76.9009 95.0257C71.142 101.97 64.2219 105.386 56.0955 105.386V107.386ZM76.9997 96.4055L93.4753 111.312L94.8171 109.829L78.3415 94.9225L76.9997 96.4055ZM93.3642 109.947C89.0219 115.396 83.5741 119.569 77.0052 122.47L77.813 124.3C84.6687 121.272 90.3789 116.903 94.9283 111.194L93.3642 109.947ZM77.0052 122.47C70.4368 125.37 63.0368 126.831 54.7879 126.831V128.831C63.276 128.831 70.9568 127.327 77.813 124.3L77.0052 122.47ZM117.379 122.47L117.837 121.58H117.837L117.379 122.47ZM102.996 109.394L102.142 109.914L102.148 109.924L102.996 109.394ZM102.996 71.6044L102.148 71.0744L102.142 71.084L102.996 71.6044ZM117.249 58.6593L117.701 59.5511L117.706 59.5486L117.249 58.6593ZM158.568 58.6593L158.111 59.5486L158.121 59.5537L158.568 58.6593ZM172.821 71.6044L171.967 72.1248L171.971 72.1308L172.821 71.6044ZM172.821 109.394L171.967 108.873L172.821 109.394ZM158.568 122.47L158.111 121.58L158.568 122.47ZM148.631 102.986L149.359 103.672L149.364 103.667L149.369 103.661L148.631 102.986ZM148.631 78.1423L149.359 77.457L148.631 78.1423ZM127.186 78.1423L126.458 77.457L127.186 78.1423ZM127.186 102.986L126.448 103.661L126.453 103.667L126.458 103.672L127.186 102.986ZM137.908 126.177C130.467 126.177 123.783 124.638 117.837 121.58L116.922 123.359C123.18 126.577 130.182 128.177 137.908 128.177V126.177ZM117.837 121.58C111.888 118.521 107.231 114.283 103.844 108.864L102.148 109.924C105.734 115.662 110.667 120.142 116.922 123.359L117.837 121.58ZM103.85 108.873C100.553 103.464 98.8963 97.3264 98.8963 90.4337H96.8963C96.8963 97.6628 98.639 104.166 102.142 109.914L103.85 108.873ZM98.8963 90.4337C98.8963 83.6306 100.552 77.5364 103.85 72.1248L102.142 71.084C98.6402 76.8305 96.8963 83.2892 96.8963 90.4337H98.8963ZM103.844 72.1344C107.232 66.7138 111.844 62.522 117.701 59.5511L116.796 57.7675C110.623 60.8987 105.734 65.337 102.148 71.0744L103.844 72.1344ZM117.706 59.5486C123.651 56.4914 130.377 54.952 137.908 54.952V52.952C130.097 52.952 123.051 54.5508 116.791 57.77L117.706 59.5486ZM137.908 54.952C145.44 54.952 152.166 56.4914 158.111 59.5486L159.026 57.77C152.766 54.5508 145.72 52.952 137.908 52.952V54.952ZM158.121 59.5537C164.063 62.5247 168.67 66.7134 171.967 72.1248L173.675 71.084C170.173 65.3373 165.278 60.896 159.016 57.7649L158.121 59.5537ZM171.971 72.1308C175.264 77.4499 176.921 83.5407 176.921 90.4337H178.921C178.921 83.2047 177.178 76.7426 173.671 71.0781L171.971 72.1308ZM176.921 90.4337C176.921 97.3264 175.264 103.464 171.967 108.873L173.675 109.914C177.178 104.166 178.921 97.6628 178.921 90.4337H176.921ZM171.967 108.873C168.668 114.287 164.058 118.522 158.111 121.58L159.026 123.359C165.283 120.141 170.175 115.658 173.675 109.914L171.967 108.873ZM158.111 121.58C152.166 124.637 145.44 126.177 137.908 126.177V128.177C145.72 128.177 152.766 126.578 159.026 123.359L158.111 121.58ZM137.908 108.432C142.521 108.432 146.366 106.852 149.359 103.672L147.902 102.301C145.316 105.049 142.013 106.432 137.908 106.432V108.432ZM149.369 103.661C152.371 100.378 153.815 95.9271 153.815 90.4337H151.815C151.815 95.5752 150.47 99.493 147.893 102.312L149.369 103.661ZM153.815 90.4337C153.815 85.0239 152.369 80.6547 149.359 77.457L147.902 78.8277C150.472 81.5577 151.815 85.3828 151.815 90.4337H153.815ZM149.359 77.457C146.366 74.277 142.521 72.6965 137.908 72.6965V74.6965C142.013 74.6965 145.316 76.08 147.902 78.8277L149.359 77.457ZM137.908 72.6965C133.296 72.6965 129.451 74.277 126.458 77.457L127.914 78.8277C130.501 76.08 133.804 74.6965 137.908 74.6965V72.6965ZM126.458 77.457C123.448 80.6547 122.002 85.0239 122.002 90.4337H124.002C124.002 85.3828 125.345 81.5577 127.914 78.8277L126.458 77.457ZM122.002 90.4337C122.002 95.9271 123.446 100.378 126.448 103.661L127.924 102.312C125.347 99.493 124.002 95.5752 124.002 90.4337H122.002ZM126.458 103.672C129.451 106.852 133.296 108.432 137.908 108.432V106.432C133.804 106.432 130.501 105.049 127.914 102.301L126.458 103.672ZM302.536 61.7975L301.823 62.4987L301.829 62.5046L302.536 61.7975ZM310.381 126V127H311.381V126H310.381ZM285.537 126H284.537V127H285.537V126ZM282.66 78.5346L281.871 79.1486L281.878 79.1575L281.885 79.1663L282.66 78.5346ZM265.792 78.9269L266.548 79.5818L265.792 78.9269ZM262.393 126V127H263.393V126H262.393ZM237.549 126H236.549V127H237.549V126ZM214.274 126V127H215.274V126H214.274ZM189.429 126H188.429V127H189.429V126ZM189.429 55.1288V54.1288H188.429V55.1288H189.429ZM213.097 55.1288H214.097V54.1288H213.097V55.1288ZM213.097 62.5821H212.097V65.1687L213.837 63.2547L213.097 62.5821ZM222.381 56.1749L222.744 57.1065L222.756 57.1018L222.381 56.1749ZM247.617 56.6979L248.04 55.7917H248.04L247.617 56.6979ZM257.162 65.0665L256.324 65.6122L257.089 66.7861L257.951 65.6817L257.162 65.0665ZM267.754 56.8287L267.344 55.9164L267.754 56.8287ZM281.745 54.952C290.248 54.952 296.902 57.4951 301.823 62.4987L303.249 61.0964C297.883 55.6393 290.676 52.952 281.745 52.952V54.952ZM301.829 62.5046C306.804 67.4799 309.381 75.0683 309.381 85.4648H311.381C311.381 74.7656 308.728 66.5758 303.243 61.0904L301.829 62.5046ZM309.381 85.4648V126H311.381V85.4648H309.381ZM310.381 125H285.537V127H310.381V125ZM286.537 126V89.5183H284.537V126H286.537ZM286.537 89.5183C286.537 84.4551 285.566 80.5176 283.436 77.9029L281.885 79.1663C283.59 81.2589 284.537 84.6439 284.537 89.5183H286.537ZM283.45 77.9207C281.401 75.2872 278.474 74.0041 274.815 74.0041V76.0041C277.955 76.0041 280.258 77.0748 281.871 79.1486L283.45 77.9207ZM274.815 74.0041C270.804 74.0041 267.51 75.4178 265.037 78.272L266.548 79.5818C268.608 77.2056 271.329 76.0041 274.815 76.0041V74.0041ZM265.037 78.272C262.547 81.1446 261.393 85.3916 261.393 90.8259H263.393C263.393 85.6252 264.505 81.9395 266.548 79.5818L265.037 78.272ZM261.393 90.8259V126H263.393V90.8259H261.393ZM262.393 125H237.549V127H262.393V125ZM238.549 126V89.5183H236.549V126H238.549ZM238.549 89.5183C238.549 84.5864 237.643 80.706 235.672 78.0385C233.66 75.3144 230.65 74.0041 226.826 74.0041V76.0041C230.151 76.0041 232.502 77.1129 234.064 79.2269C235.667 81.3974 236.549 84.7741 236.549 89.5183H238.549ZM226.826 74.0041C222.736 74.0041 219.396 75.4123 216.918 78.272L218.429 79.5818C220.484 77.2111 223.246 76.0041 226.826 76.0041V74.0041ZM216.918 78.272C214.428 81.1446 213.274 85.3916 213.274 90.8259H215.274C215.274 85.6252 216.386 81.9395 218.429 79.5818L216.918 78.272ZM213.274 90.8259V126H215.274V90.8259H213.274ZM214.274 125H189.429V127H214.274V125ZM190.429 126V55.1288H188.429V126H190.429ZM189.429 56.1288H213.097V54.1288H189.429V56.1288ZM212.097 55.1288V62.5821H214.097V55.1288H212.097ZM213.837 63.2547C216.349 60.4907 219.316 58.4444 222.744 57.1065L222.017 55.2433C218.297 56.695 215.074 58.9201 212.357 61.9094L213.837 63.2547ZM222.756 57.1018C226.288 55.672 230.126 54.952 234.28 54.952V52.952C229.89 52.952 225.795 53.714 222.005 55.2479L222.756 57.1018ZM234.28 54.952C239.124 54.952 243.422 55.8438 247.194 57.6041L248.04 55.7917C243.966 53.8908 239.373 52.952 234.28 52.952V54.952ZM247.194 57.6041C250.942 59.353 253.982 62.0149 256.324 65.6122L258 64.5208C255.461 60.6213 252.138 57.7041 248.04 55.7917L247.194 57.6041ZM257.951 65.6817C260.637 62.2403 264.035 59.5943 268.163 57.741L267.344 55.9164C262.929 57.8986 259.267 60.7445 256.374 64.4512L257.951 65.6817ZM268.163 57.741C272.296 55.8855 276.819 54.952 281.745 54.952V52.952C276.559 52.952 271.755 53.9363 267.344 55.9164L268.163 57.741ZM439.168 61.7975L438.455 62.4987L438.461 62.5046L439.168 61.7975ZM447.014 126V127H448.014V126H447.014ZM422.17 126H421.17V127H422.17V126ZM419.293 78.5346L418.503 79.1486L418.51 79.1575L418.518 79.1663L419.293 78.5346ZM402.425 78.9269L403.181 79.5818L402.425 78.9269ZM399.025 126V127H400.025V126H399.025ZM374.181 126H373.181V127H374.181V126ZM350.906 126V127H351.906V126H350.906ZM326.062 126H325.062V127H326.062V126ZM326.062 55.1288V54.1288H325.062V55.1288H326.062ZM349.729 55.1288H350.729V54.1288H349.729V55.1288ZM349.729 62.5821H348.729V65.1687L350.469 63.2547L349.729 62.5821ZM359.013 56.1749L359.377 57.1065L359.388 57.1018L359.013 56.1749ZM384.25 56.6979L384.672 55.7917L384.25 56.6979ZM393.795 65.0665L392.957 65.6122L393.721 66.7861L394.583 65.6817L393.795 65.0665ZM404.386 56.8287L403.977 55.9164L404.386 56.8287ZM418.378 54.952C426.881 54.952 433.535 57.4951 438.455 62.4987L439.881 61.0964C434.515 55.6393 427.309 52.952 418.378 52.952V54.952ZM438.461 62.5046C443.436 67.4799 446.014 75.0683 446.014 85.4648H448.014C448.014 74.7656 445.361 66.5758 439.875 61.0904L438.461 62.5046ZM446.014 85.4648V126H448.014V85.4648H446.014ZM447.014 125H422.17V127H447.014V125ZM423.17 126V89.5183H421.17V126H423.17ZM423.17 89.5183C423.17 84.4551 422.199 80.5176 420.068 77.9029L418.518 79.1663C420.223 81.2589 421.17 84.6439 421.17 89.5183H423.17ZM420.082 77.9207C418.034 75.2872 415.107 74.0041 411.447 74.0041V76.0041C414.588 76.0041 416.891 77.0748 418.503 79.1486L420.082 77.9207ZM411.447 74.0041C407.436 74.0041 404.143 75.4178 401.669 78.272L403.181 79.5818C405.24 77.2056 407.962 76.0041 411.447 76.0041V74.0041ZM401.669 78.272C399.18 81.1446 398.025 85.3916 398.025 90.8259H400.025C400.025 85.6252 401.137 81.9395 403.181 79.5818L401.669 78.272ZM398.025 90.8259V126H400.025V90.8259H398.025ZM399.025 125H374.181V127H399.025V125ZM375.181 126V89.5183H373.181V126H375.181ZM375.181 89.5183C375.181 84.5864 374.275 80.706 372.305 78.0385C370.292 75.3144 367.283 74.0041 363.459 74.0041V76.0041C366.783 76.0041 369.135 77.1129 370.696 79.2269C372.3 81.3974 373.181 84.7741 373.181 89.5183H375.181ZM363.459 74.0041C359.369 74.0041 356.028 75.4123 353.55 78.272L355.061 79.5818C357.116 77.2111 359.878 76.0041 363.459 76.0041V74.0041ZM353.55 78.272C351.06 81.1446 349.906 85.3916 349.906 90.8259H351.906C351.906 85.6252 353.018 81.9395 355.061 79.5818L353.55 78.272ZM349.906 90.8259V126H351.906V90.8259H349.906ZM350.906 125H326.062V127H350.906V125ZM327.062 126V55.1288H325.062V126H327.062ZM326.062 56.1288H349.729V54.1288H326.062V56.1288ZM348.729 55.1288V62.5821H350.729V55.1288H348.729ZM350.469 63.2547C352.982 60.4907 355.948 58.4444 359.377 57.1065L358.65 55.2433C354.93 56.695 351.707 58.9201 348.989 61.9094L350.469 63.2547ZM359.388 57.1018C362.921 55.672 366.759 54.952 370.912 54.952V52.952C366.523 52.952 362.428 53.714 358.638 55.2479L359.388 57.1018ZM370.912 54.952C375.756 54.952 380.055 55.8438 383.827 57.6041L384.672 55.7917C380.599 53.8908 376.006 52.952 370.912 52.952V54.952ZM383.827 57.6041C387.574 59.353 390.614 62.0149 392.957 65.6122L394.633 64.5208C392.094 60.6213 388.77 57.7041 384.672 55.7917L383.827 57.6041ZM394.583 65.6817C397.269 62.2403 400.668 59.5943 404.796 57.741L403.977 55.9164C399.562 57.8986 395.9 60.7445 393.007 64.4512L394.583 65.6817ZM404.796 57.741C408.929 55.8855 413.451 54.952 418.378 54.952V52.952C413.192 52.952 408.387 53.9363 403.977 55.9164L404.796 57.741ZM537.227 55.1288H538.227V54.1288H537.227V55.1288ZM537.227 126V127H538.227V126H537.227ZM513.56 126H512.56V127H513.56V126ZM513.56 118.416H514.56V115.829L512.82 117.743L513.56 118.416ZM504.145 124.954L503.77 124.027L504.145 124.954ZM470.54 119.07L469.833 119.777L469.839 119.783L470.54 119.07ZM462.433 55.1288V54.1288H461.433V55.1288H462.433ZM487.277 55.1288H488.277V54.1288H487.277V55.1288ZM508.591 101.94L507.85 101.269L507.849 101.27L508.591 101.94ZM512.383 55.1288V54.1288H511.383V55.1288H512.383ZM536.227 55.1288V126H538.227V55.1288H536.227ZM537.227 125H513.56V127H537.227V125ZM514.56 126V118.416H512.56V126H514.56ZM512.82 117.743C510.307 120.507 507.294 122.6 503.77 124.027L504.52 125.881C508.318 124.344 511.582 122.078 514.299 119.089L512.82 117.743ZM503.77 124.027C500.232 125.459 496.481 126.177 492.507 126.177V128.177C496.728 128.177 500.735 127.413 504.52 125.881L503.77 124.027ZM492.507 126.177C483.564 126.177 476.512 123.544 471.241 118.357L469.839 119.783C475.552 125.405 483.145 128.177 492.507 128.177V126.177ZM471.247 118.363C466.096 113.212 463.433 105.404 463.433 94.7487H461.433C461.433 105.712 464.175 114.119 469.833 119.777L471.247 118.363ZM463.433 94.7487V55.1288H461.433V94.7487H463.433ZM462.433 56.1288H487.277V54.1288H462.433V56.1288ZM486.277 55.1288V90.6952H488.277V55.1288H486.277ZM486.277 90.6952C486.277 96.0992 487.289 100.261 489.512 102.967L491.057 101.698C489.271 99.5228 488.277 95.9261 488.277 90.6952H486.277ZM489.512 102.967C491.747 105.689 494.981 106.994 499.045 106.994V104.994C495.438 104.994 492.832 103.858 491.057 101.698L489.512 102.967ZM499.045 106.994C503.226 106.994 506.687 105.541 509.333 102.611L507.849 101.27C505.613 103.745 502.71 104.994 499.045 104.994V106.994ZM509.332 102.612C512.093 99.5646 513.383 95.0493 513.383 89.2568H511.383C511.383 94.7968 510.144 98.7372 507.85 101.269L509.332 102.612ZM513.383 89.2568V55.1288H511.383V89.2568H513.383ZM512.383 56.1288H537.227V54.1288H512.383V56.1288ZM620.57 61.7975L619.869 62.5105L619.875 62.5161L620.57 61.7975ZM628.677 126V127H629.677V126H628.677ZM603.833 126H602.833V127H603.833V126ZM581.866 79.1884L581.136 78.5045L581.13 78.5106L581.125 78.5169L581.866 79.1884ZM578.074 126V127H579.074V126H578.074ZM553.229 126H552.229V127H553.229V126ZM553.229 55.1288V54.1288H552.229V55.1288H553.229ZM576.897 55.1288H577.897V54.1288H576.897V55.1288ZM576.897 62.8436H575.897V65.3113L577.615 63.5397L576.897 62.8436ZM586.834 56.3056L587.195 57.2384L587.204 57.2349L587.213 57.2312L586.834 56.3056ZM599.387 54.952C607.98 54.952 614.772 57.4969 619.869 62.5104L621.271 61.0846C615.734 55.6375 608.403 52.952 599.387 52.952V54.952ZM619.875 62.5161C625.017 67.4927 627.677 75.0767 627.677 85.4648H629.677C629.677 74.7572 626.932 66.563 621.266 61.0789L619.875 62.5161ZM627.677 85.4648V126H629.677V85.4648H627.677ZM628.677 125H603.833V127H628.677V125ZM604.833 126V89.5183H602.833V126H604.833ZM604.833 89.5183C604.833 84.573 603.846 80.6789 601.704 78.0071C599.528 75.2931 596.295 74.0041 592.196 74.0041V76.0041C595.855 76.0041 598.44 77.1342 600.144 79.2582C601.88 81.4245 602.833 84.7875 602.833 89.5183H604.833ZM592.196 74.0041C587.683 74.0041 583.964 75.4886 581.136 78.5045L582.595 79.8724C584.998 77.3092 588.165 76.0041 592.196 76.0041V74.0041ZM581.125 78.5169C578.365 81.5618 577.074 86.0311 577.074 91.7412H579.074C579.074 86.2933 580.31 82.3941 582.607 79.8599L581.125 78.5169ZM577.074 91.7412V126H579.074V91.7412H577.074ZM578.074 125H553.229V127H578.074V125ZM554.229 126V55.1288H552.229V126H554.229ZM553.229 56.1288H576.897V54.1288H553.229V56.1288ZM575.897 55.1288V62.8436H577.897V55.1288H575.897ZM577.615 63.5397C580.301 60.7696 583.491 58.6697 587.195 57.2384L586.474 55.3728C582.507 56.9055 579.072 59.1642 576.179 62.1474L577.615 63.5397ZM587.213 57.2312C590.918 55.7157 594.972 54.952 599.387 54.952V52.952C594.737 52.952 590.422 53.7574 586.456 55.3801L587.213 57.2312ZM644.275 55.1288V54.1288H643.275V55.1288H644.275ZM669.119 55.1288H670.119V54.1288H669.119V55.1288ZM669.119 126V127H670.119V126H669.119ZM644.275 126H643.275V127H644.275V126ZM645.714 43.4913L646.385 42.7503L645.714 43.4913ZM645.714 24.6621L646.385 25.4031L645.714 24.6621ZM667.681 24.5313L667.023 25.2839L667.029 25.2898L667.036 25.2956L667.681 24.5313ZM667.681 43.4913L668.353 44.2323L668.359 44.2266L668.365 44.2208L667.681 43.4913ZM644.275 56.1288H669.119V54.1288H644.275V56.1288ZM668.119 55.1288V126H670.119V55.1288H668.119ZM669.119 125H644.275V127H669.119V125ZM645.275 126V55.1288H643.275V126H645.275ZM656.697 46.2833C652.359 46.2833 648.955 45.079 646.385 42.7503L645.042 44.2323C648.052 46.9596 651.97 48.2833 656.697 48.2833V46.2833ZM646.385 42.7503C643.804 40.4109 642.529 37.5414 642.529 34.0767H640.529C640.529 38.1088 642.044 41.5157 645.042 44.2323L646.385 42.7503ZM642.529 34.0767C642.529 30.6119 643.804 27.7424 646.385 25.4031L645.042 23.9211C642.044 26.6377 640.529 30.0446 640.529 34.0767H642.529ZM646.385 25.4031C648.955 23.0744 652.359 21.8701 656.697 21.8701V19.8701C651.97 19.8701 648.052 21.1937 645.042 23.9211L646.385 25.4031ZM656.697 21.8701C661.044 21.8701 664.454 23.0361 667.023 25.2839L668.34 23.7787C665.329 21.1448 661.416 19.8701 656.697 19.8701V21.8701ZM667.036 25.2956C669.594 27.4534 670.865 30.2215 670.865 33.6844H672.865C672.865 29.6505 671.348 26.3165 668.326 23.767L667.036 25.2956ZM670.865 33.6844C670.865 37.3389 669.579 40.3411 666.997 42.7618L668.365 44.2208C671.362 41.4112 672.865 37.8755 672.865 33.6844H670.865ZM667.01 42.7503C664.44 45.079 661.035 46.2833 656.697 46.2833V48.2833C661.425 48.2833 665.343 46.9596 668.353 44.2323L667.01 42.7503ZM700.433 122.47L699.981 123.361L700.433 122.47ZM685.919 109.394L685.065 109.914L685.071 109.924L685.919 109.394ZM685.919 71.6044L685.071 71.0744L685.069 71.0781L685.919 71.6044ZM700.433 58.6593L700.875 59.5563L700.885 59.5512L700.433 58.6593ZM742.276 59.1823L741.763 60.041L741.773 60.0466L742.276 59.1823ZM754.698 73.435L755.152 74.3258L755.965 73.911L755.626 73.0636L754.698 73.435ZM735.476 83.2419L734.584 83.694L735.038 84.5884L735.931 84.1327L735.476 83.2419ZM710.24 78.1423L709.533 77.4352L709.528 77.4405L709.522 77.4459L710.24 78.1423ZM710.24 102.986L709.512 103.672L709.522 103.683L709.533 103.694L710.24 102.986ZM735.476 97.8869L735.931 96.9961L735.038 96.5405L734.584 97.4348L735.476 97.8869ZM754.698 107.694L755.626 108.065L755.965 107.218L755.152 106.803L754.698 107.694ZM742.276 122.077L742.779 122.942L742.788 122.936L742.276 122.077ZM721.485 126.177C713.776 126.177 706.917 124.636 700.885 121.578L699.981 123.361C706.328 126.579 713.503 128.177 721.485 128.177V126.177ZM700.885 121.578C694.849 118.517 690.152 114.28 686.767 108.864L685.071 109.924C688.66 115.666 693.638 120.146 699.981 123.361L700.885 121.578ZM686.773 108.873C683.476 103.464 681.819 97.3264 681.819 90.4337H679.819C679.819 97.6628 681.562 104.166 685.065 109.914L686.773 108.873ZM681.819 90.4337C681.819 83.5407 683.476 77.4499 686.769 72.1308L685.069 71.0781C681.562 76.7426 679.819 83.2047 679.819 90.4337H681.819ZM686.767 72.1344C690.15 66.7209 694.844 62.5293 700.875 59.5562L699.991 57.7624C693.643 60.8914 688.661 65.3298 685.071 71.0744L686.767 72.1344ZM700.885 59.5512C706.917 56.4929 713.776 54.952 721.485 54.952V52.952C713.503 52.952 706.328 54.5493 699.981 57.7674L700.885 59.5512ZM721.485 54.952C729.357 54.952 736.103 56.662 741.763 60.041L742.788 58.3237C736.767 54.7289 729.653 52.952 721.485 52.952V54.952ZM741.773 60.0466C747.426 63.3375 751.414 67.9177 753.769 73.8064L755.626 73.0636C753.1 66.7482 748.806 61.8266 742.779 58.3181L741.773 60.0466ZM754.243 72.5443L735.022 82.3512L735.931 84.1327L755.152 74.3258L754.243 72.5443ZM736.368 82.7898C734.698 79.4945 732.613 76.9619 730.087 75.2544C727.553 73.5417 724.63 72.6965 721.354 72.6965V74.6965C724.268 74.6965 726.793 75.4423 728.967 76.9114C731.148 78.3857 733.029 80.6257 734.584 83.694L736.368 82.7898ZM721.354 72.6965C716.661 72.6965 712.696 74.2716 709.533 77.4352L710.947 78.8494C713.711 76.0854 717.156 74.6965 721.354 74.6965V72.6965ZM709.522 77.4459C706.42 80.6426 704.925 85.0158 704.925 90.4337H706.925C706.925 85.3909 708.307 81.5698 710.958 78.8388L709.522 77.4459ZM704.925 90.4337C704.925 95.935 706.417 100.39 709.512 103.672L710.968 102.3C708.309 99.481 706.925 95.5674 706.925 90.4337H704.925ZM709.533 103.694C712.696 106.857 716.661 108.432 721.354 108.432V106.432C717.156 106.432 713.711 105.043 710.947 102.279L709.533 103.694ZM721.354 108.432C724.63 108.432 727.553 107.587 730.087 105.874C732.613 104.167 734.698 101.634 736.368 98.339L734.584 97.4348C733.029 100.503 731.148 102.743 728.967 104.217C726.793 105.687 724.268 106.432 721.354 106.432V108.432ZM735.022 98.7777L754.243 108.585L755.152 106.803L735.931 96.9961L735.022 98.7777ZM753.769 107.322C751.413 113.213 747.423 117.84 741.763 121.219L742.788 122.936C748.81 119.341 753.101 114.378 755.626 108.065L753.769 107.322ZM741.773 121.213C736.111 124.508 729.361 126.177 721.485 126.177V128.177C729.649 128.177 736.759 126.445 742.779 122.941L741.773 121.213ZM838.211 55.1288H839.211V54.1288H838.211V55.1288ZM838.211 126V127H839.211V126H838.211ZM814.543 126H813.543V127H814.543V126ZM814.543 118.939H815.543V116.197L813.778 118.295L814.543 118.939ZM775.97 122.731L775.466 123.595L775.474 123.6L775.483 123.605L775.97 122.731ZM763.417 109.786L762.539 110.266L762.545 110.276L763.417 109.786ZM763.417 71.2121L762.545 70.7219L762.543 70.7265L763.417 71.2121ZM775.97 58.3978L775.483 57.5243L775.477 57.5278L775.97 58.3978ZM813.367 61.2745L812.653 61.9752L814.367 63.7198V61.2745H813.367ZM813.367 55.1288V54.1288H812.367V55.1288H813.367ZM809.575 102.986L810.303 103.672L810.308 103.667L810.313 103.661L809.575 102.986ZM809.575 78.1423L810.303 77.457L809.575 78.1423ZM788.13 78.1423L787.402 77.457L788.13 78.1423ZM788.13 102.986L787.392 103.661L787.397 103.667L787.402 103.672L788.13 102.986ZM837.211 55.1288V126H839.211V55.1288H837.211ZM838.211 125H814.543V127H838.211V125ZM815.543 126V118.939H813.543V126H815.543ZM813.778 118.295C809.402 123.498 802.749 126.177 793.622 126.177V128.177C803.15 128.177 810.445 125.364 815.309 119.583L813.778 118.295ZM793.622 126.177C787.331 126.177 781.616 124.733 776.457 121.858L775.483 123.605C780.958 126.656 787.011 128.177 793.622 128.177V126.177ZM776.474 121.867C771.406 118.911 767.345 114.729 764.288 109.296L762.545 110.276C765.766 116.001 770.073 120.449 775.466 123.595L776.474 121.867ZM764.294 109.306C761.335 103.895 759.84 97.6141 759.84 90.4337H757.84C757.84 97.8982 759.397 104.519 762.539 110.266L764.294 109.306ZM759.84 90.4337C759.84 83.2528 761.335 77.0182 764.291 71.6978L762.543 70.7265C759.396 76.3898 757.84 82.9696 757.84 90.4337H759.84ZM764.288 71.7024C767.343 66.2714 771.401 62.136 776.463 59.2678L775.477 57.5278C770.078 60.5873 765.767 64.9948 762.545 70.7219L764.288 71.7024ZM776.457 59.2713C781.616 56.3954 787.331 54.952 793.622 54.952V52.952C787.011 52.952 780.958 54.4725 775.483 57.5243L776.457 59.2713ZM793.622 54.952C801.786 54.952 808.087 57.3262 812.653 61.9752L814.08 60.5738C809.057 55.4595 802.195 52.952 793.622 52.952V54.952ZM814.367 61.2745V55.1288H812.367V61.2745H814.367ZM813.367 56.1288H838.211V54.1288H813.367V56.1288ZM798.852 108.432C803.465 108.432 807.31 106.852 810.303 103.672L808.846 102.301C806.26 105.049 802.957 106.432 798.852 106.432V108.432ZM810.313 103.661C813.315 100.378 814.759 95.9271 814.759 90.4337H812.759C812.759 95.5752 811.414 99.493 808.837 102.312L810.313 103.661ZM814.759 90.4337C814.759 85.0239 813.312 80.6547 810.303 77.457L808.846 78.8277C811.416 81.5577 812.759 85.3828 812.759 90.4337H814.759ZM810.303 77.457C807.31 74.277 803.465 72.6965 798.852 72.6965V74.6965C802.957 74.6965 806.26 76.08 808.846 78.8277L810.303 77.457ZM798.852 72.6965C794.24 72.6965 790.395 74.277 787.402 77.457L788.858 78.8277C791.445 76.08 794.748 74.6965 798.852 74.6965V72.6965ZM787.402 77.457C784.392 80.6547 782.946 85.0239 782.946 90.4337H784.946C784.946 85.3828 786.289 81.5577 788.858 78.8277L787.402 77.457ZM782.946 90.4337C782.946 95.9271 784.39 100.378 787.392 103.661L788.868 102.312C786.291 99.493 784.946 95.5752 784.946 90.4337H782.946ZM787.402 103.672C790.395 106.852 794.24 108.432 798.852 108.432V106.432C794.748 106.432 791.445 105.049 788.858 102.301L787.402 103.672ZM899.839 123.123L900.369 123.971L901.049 123.546L900.782 122.79L899.839 123.123ZM892.124 126.131L891.901 125.156L891.895 125.157L892.124 126.131ZM861.265 120.377L860.585 121.11L860.591 121.116L861.265 120.377ZM853.943 39.307V38.307H852.943V39.307H853.943ZM878.787 39.307H879.787V38.307H878.787V39.307ZM878.787 57.744H877.787V58.744H878.787V57.744ZM894.87 57.744H895.87V56.744H894.87V57.744ZM894.87 76.3117V77.3117H895.87V76.3117H894.87ZM878.787 76.3117V75.3117H877.787V76.3117H878.787ZM880.748 105.863L880.019 106.547L880.748 105.863ZM893.693 105.732L894.636 105.399L894.204 104.176L893.131 104.905L893.693 105.732ZM899.309 122.275C897.333 123.51 894.871 124.477 891.901 125.156L892.347 127.106C895.479 126.39 898.161 125.351 900.369 123.971L899.309 122.275ZM891.895 125.157C889.014 125.835 885.91 126.177 882.579 126.177V128.177C886.047 128.177 889.306 127.821 892.353 127.104L891.895 125.157ZM882.579 126.177C873.494 126.177 866.664 123.949 861.939 119.639L860.591 121.116C865.804 125.871 873.183 128.177 882.579 128.177V126.177ZM861.946 119.645C857.331 115.36 854.943 108.911 854.943 100.11H852.943C852.943 109.266 855.436 116.329 860.585 121.11L861.946 119.645ZM854.943 100.11V39.307H852.943V100.11H854.943ZM853.943 40.307H878.787V38.307H853.943V40.307ZM877.787 39.307V57.744H879.787V39.307H877.787ZM878.787 58.744H894.87V56.744H878.787V58.744ZM893.87 57.744V76.3117H895.87V57.744H893.87ZM894.87 75.3117H878.787V77.3117H894.87V75.3117ZM877.787 76.3117V99.8483H879.787V76.3117H877.787ZM877.787 99.8483C877.787 102.623 878.482 104.908 880.019 106.547L881.478 105.179C880.399 104.029 879.787 102.304 879.787 99.8483H877.787ZM880.019 106.547C881.55 108.181 883.622 108.955 886.109 108.955V106.955C884.064 106.955 882.561 106.335 881.478 105.179L880.019 106.547ZM886.109 108.955C889.167 108.955 891.895 108.164 894.256 106.559L893.131 104.905C891.133 106.264 888.805 106.955 886.109 106.955V108.955ZM892.75 106.066L898.896 123.457L900.782 122.79L894.636 105.399L892.75 106.066ZM909.368 55.1288V54.1288H908.368V55.1288H909.368ZM934.212 55.1288H935.212V54.1288H934.212V55.1288ZM934.212 126V127H935.212V126H934.212ZM909.368 126H908.368V127H909.368V126ZM910.806 43.4913L911.478 42.7503L910.806 43.4913ZM910.806 24.6621L911.478 25.4031L910.806 24.6621ZM932.774 24.5313L932.115 25.2839L932.122 25.2898L932.129 25.2956L932.774 24.5313ZM932.774 43.4913L933.445 44.2323L933.452 44.2266L933.458 44.2208L932.774 43.4913ZM909.368 56.1288H934.212V54.1288H909.368V56.1288ZM933.212 55.1288V126H935.212V55.1288H933.212ZM934.212 125H909.368V127H934.212V125ZM910.368 126V55.1288H908.368V126H910.368ZM921.79 46.2833C917.452 46.2833 914.047 45.079 911.478 42.7503L910.135 44.2323C913.144 46.9596 917.062 48.2833 921.79 48.2833V46.2833ZM911.478 42.7503C908.896 40.4109 907.622 37.5414 907.622 34.0767H905.622C905.622 38.1088 907.137 41.5157 910.135 44.2323L911.478 42.7503ZM907.622 34.0767C907.622 30.6119 908.896 27.7424 911.478 25.4031L910.135 23.9211C907.137 26.6377 905.622 30.0446 905.622 34.0767H907.622ZM911.478 25.4031C914.047 23.0744 917.452 21.8701 921.79 21.8701V19.8701C917.062 19.8701 913.144 21.1937 910.135 23.9211L911.478 25.4031ZM921.79 21.8701C926.137 21.8701 929.546 23.0361 932.115 25.2839L933.432 23.7787C930.422 21.1448 926.509 19.8701 921.79 19.8701V21.8701ZM932.129 25.2956C934.686 27.4534 935.958 30.2215 935.958 33.6844H937.958C937.958 29.6505 936.44 26.3165 933.419 23.767L932.129 25.2956ZM935.958 33.6844C935.958 37.3389 934.672 40.3411 932.09 42.7618L933.458 44.2208C936.455 41.4112 937.958 37.8755 937.958 33.6844H935.958ZM932.102 42.7503C929.533 45.079 926.128 46.2833 921.79 46.2833V48.2833C926.518 48.2833 930.436 46.9596 933.445 44.2323L932.102 42.7503ZM965.395 122.47L965.852 121.58L965.395 122.47ZM951.012 109.394L950.158 109.914L950.164 109.924L951.012 109.394ZM951.012 71.6044L950.164 71.0744L950.158 71.084L951.012 71.6044ZM965.264 58.6593L965.717 59.5511L965.722 59.5486L965.264 58.6593ZM1006.58 58.6593L1006.13 59.5486L1006.14 59.5537L1006.58 58.6593ZM1020.84 71.6044L1019.98 72.1248L1019.99 72.1308L1020.84 71.6044ZM1020.84 109.394L1019.98 108.873L1020.84 109.394ZM1006.58 122.47L1006.13 121.58L1006.58 122.47ZM996.646 102.986L997.375 103.672L997.379 103.667L997.384 103.661L996.646 102.986ZM996.646 78.1423L997.375 77.457L996.646 78.1423ZM975.202 78.1423L974.474 77.457L975.202 78.1423ZM975.202 102.986L974.464 103.661L974.469 103.667L974.474 103.672L975.202 102.986ZM985.924 126.177C978.482 126.177 971.799 124.638 965.852 121.58L964.938 123.359C971.196 126.577 978.198 128.177 985.924 128.177V126.177ZM965.852 121.58C959.903 118.521 955.247 114.283 951.86 108.864L950.164 109.924C953.75 115.662 958.683 120.142 964.938 123.359L965.852 121.58ZM951.865 108.873C948.569 103.464 946.912 97.3264 946.912 90.4337H944.912C944.912 97.6628 946.655 104.166 950.158 109.914L951.865 108.873ZM946.912 90.4337C946.912 83.6306 948.568 77.5364 951.865 72.1248L950.158 71.084C946.656 76.8305 944.912 83.2892 944.912 90.4337H946.912ZM951.86 72.1344C955.247 66.7138 959.86 62.522 965.717 59.5511L964.812 57.7675C958.639 60.8987 953.749 65.337 950.164 71.0744L951.86 72.1344ZM965.722 59.5486C971.666 56.4914 978.393 54.952 985.924 54.952V52.952C978.113 52.952 971.066 54.5508 964.807 57.77L965.722 59.5486ZM985.924 54.952C993.455 54.952 1000.18 56.4914 1006.13 59.5486L1007.04 57.77C1000.78 54.5508 993.735 52.952 985.924 52.952V54.952ZM1006.14 59.5537C1012.08 62.5247 1016.69 66.7134 1019.98 72.1248L1021.69 71.084C1018.19 65.3373 1013.29 60.896 1007.03 57.7649L1006.14 59.5537ZM1019.99 72.1308C1023.28 77.4499 1024.94 83.5407 1024.94 90.4337H1026.94C1026.94 83.2047 1025.19 76.7426 1021.69 71.0781L1019.99 72.1308ZM1024.94 90.4337C1024.94 97.3264 1023.28 103.464 1019.98 108.873L1021.69 109.914C1025.19 104.166 1026.94 97.6628 1026.94 90.4337H1024.94ZM1019.98 108.873C1016.68 114.287 1012.07 118.522 1006.13 121.58L1007.04 123.359C1013.3 120.141 1018.19 115.658 1021.69 109.914L1019.98 108.873ZM1006.13 121.58C1000.18 124.637 993.455 126.177 985.924 126.177V128.177C993.735 128.177 1000.78 126.578 1007.04 123.359L1006.13 121.58ZM985.924 108.432C990.537 108.432 994.382 106.852 997.375 103.672L995.918 102.301C993.332 105.049 990.029 106.432 985.924 106.432V108.432ZM997.384 103.661C1000.39 100.378 1001.83 95.9271 1001.83 90.4337H999.831C999.831 95.5752 998.485 99.493 995.908 102.312L997.384 103.661ZM1001.83 90.4337C1001.83 85.0239 1000.38 80.6547 997.375 77.457L995.918 78.8277C998.487 81.5577 999.831 85.3828 999.831 90.4337H1001.83ZM997.375 77.457C994.382 74.277 990.537 72.6965 985.924 72.6965V74.6965C990.029 74.6965 993.332 76.08 995.918 78.8277L997.375 77.457ZM985.924 72.6965C981.312 72.6965 977.467 74.277 974.474 77.457L975.93 78.8277C978.516 76.08 981.819 74.6965 985.924 74.6965V72.6965ZM974.474 77.457C971.464 80.6547 970.018 85.0239 970.018 90.4337H972.018C972.018 85.3828 973.361 81.5577 975.93 78.8277L974.474 77.457ZM970.018 90.4337C970.018 95.9271 971.462 100.378 974.464 103.661L975.94 102.312C973.363 99.493 972.018 95.5752 972.018 90.4337H970.018ZM974.474 103.672C977.467 106.852 981.312 108.432 985.924 108.432V106.432C981.819 106.432 978.516 105.049 975.93 102.301L974.474 103.672ZM1104.79 61.7975L1104.08 62.5105L1104.09 62.5161L1104.79 61.7975ZM1112.89 126V127H1113.89V126H1112.89ZM1088.05 126H1087.05V127H1088.05V126ZM1066.08 79.1884L1065.35 78.5045L1065.35 78.5106L1065.34 78.5169L1066.08 79.1884ZM1062.29 126V127H1063.29V126H1062.29ZM1037.45 126H1036.45V127H1037.45V126ZM1037.45 55.1288V54.1288H1036.45V55.1288H1037.45ZM1061.11 55.1288H1062.11V54.1288H1061.11V55.1288ZM1061.11 62.8436H1060.11V65.3113L1061.83 63.5397L1061.11 62.8436ZM1071.05 56.3056L1071.41 57.2384L1071.42 57.2349L1071.43 57.2312L1071.05 56.3056ZM1083.6 54.952C1092.2 54.952 1098.99 57.4969 1104.08 62.5104L1105.49 61.0846C1099.95 55.6375 1092.62 52.952 1083.6 52.952V54.952ZM1104.09 62.5161C1109.23 67.4927 1111.89 75.0767 1111.89 85.4648H1113.89C1113.89 74.7572 1111.15 66.563 1105.48 61.0789L1104.09 62.5161ZM1111.89 85.4648V126H1113.89V85.4648H1111.89ZM1112.89 125H1088.05V127H1112.89V125ZM1089.05 126V89.5183H1087.05V126H1089.05ZM1089.05 89.5183C1089.05 84.573 1088.06 80.6789 1085.92 78.0071C1083.74 75.2931 1080.51 74.0041 1076.41 74.0041V76.0041C1080.07 76.0041 1082.66 77.1342 1084.36 79.2582C1086.1 81.4245 1087.05 84.7875 1087.05 89.5183H1089.05ZM1076.41 74.0041C1071.9 74.0041 1068.18 75.4886 1065.35 78.5045L1066.81 79.8724C1069.21 77.3092 1072.38 76.0041 1076.41 76.0041V74.0041ZM1065.34 78.5169C1062.58 81.5618 1061.29 86.0311 1061.29 91.7412H1063.29C1063.29 86.2933 1064.53 82.3941 1066.82 79.8599L1065.34 78.5169ZM1061.29 91.7412V126H1063.29V91.7412H1061.29ZM1062.29 125H1037.45V127H1062.29V125ZM1038.45 126V55.1288H1036.45V126H1038.45ZM1037.45 56.1288H1061.11V54.1288H1037.45V56.1288ZM1060.11 55.1288V62.8436H1062.11V55.1288H1060.11ZM1061.83 63.5397C1064.52 60.7696 1067.71 58.6697 1071.41 57.2384L1070.69 55.3728C1066.72 56.9055 1063.29 59.1642 1060.39 62.1474L1061.83 63.5397ZM1071.43 57.2312C1075.13 55.7157 1079.19 54.952 1083.6 54.952V52.952C1078.95 52.952 1074.64 53.7574 1070.67 55.3801L1071.43 57.2312Z" fill="url(#paint0_linear_1648_145)" mask="url(#path-1-outside-1_1648_145)"/>
    <ellipse cx="656.5" cy="34" rx="16.5" ry="15" fill="#58C1A3"/>
    <ellipse cx="921.5" cy="34" rx="16.5" ry="15" fill="#FEC46D"/>
    <defs>
    <linearGradient id="paint0_linear_1648_145" x1="2.83734e-06" y1="79" x2="1121" y2="79.0001" gradientUnits="userSpaceOnUse">
    <stop stop-color="#FEC46D"/>
    <stop offset="0.994792" stop-color="#58C1A3"/>
    </linearGradient>
    </defs>
    </svg>
    