<svg width="1715" height="517" viewBox="0 0 1715 517" fill="none" xmlns="http://www.w3.org/2000/svg">
    <g opacity="0.05">
    <rect x="173.337" y="7.83738" width="56.7768" height="56.7768" rx="28.3884" transform="rotate(90 173.337 7.83738)" stroke="#9BB7E0" stroke-width="0.792258"/>
    <rect x="115.768" y="-49.4027" width="56.7768" height="56.7768" rx="28.3884" transform="rotate(90 115.768 -49.4027)" stroke="#58C1A3" stroke-width="0.792258"/>
    <path d="M116.562 7.04513C116.774 -24.2163 142.076 -49.5182 173.337 -49.7303V7.04513H116.562Z" stroke="#FEC46D" stroke-width="0.792258"/>
    <path d="M58.9925 64.6142C59.2046 33.3527 84.5065 8.05085 115.768 7.83873V64.6142H58.9925Z" stroke="#FEE45D" stroke-width="0.792258"/>
    <path d="M58.552 7.86296C58.3118 39.1242 32.9872 64.4033 1.72559 64.5874L1.77657 7.81197L58.552 7.86296Z" stroke="#8FCFA7" stroke-width="0.792258"/>
    <path d="M1.35577 7.77022L58.9248 -50.1278H1.35577V7.77022Z" stroke="#FEC46D" stroke-width="0.792258"/>
    <rect x="116.534" y="65.4584" width="56.7768" height="56.7768" rx="28.3884" stroke="#9BB7E0" stroke-width="0.792258"/>
    <rect x="1.39613" y="180.596" width="56.7768" height="56.7768" rx="28.3884" stroke="#9BB7E0" stroke-width="0.792258"/>
    <rect x="59.2946" y="123.027" width="56.7768" height="56.7768" rx="28.3884" stroke="#58C1A3" stroke-width="0.792258"/>
    <path d="M115.742 122.234C84.4808 122.022 59.1789 96.7199 58.9668 65.4584H115.742V122.234Z" stroke="#FEC46D" stroke-width="0.792258"/>
    <path d="M1.44733 179.854C1.63236 148.592 26.9123 123.268 58.1736 123.029L58.2227 179.804L1.44733 179.854Z" stroke="#FEE45D" stroke-width="0.792258"/>
    <path d="M173.311 179.803C142.049 179.591 116.747 154.289 116.535 123.027H173.311V179.803Z" stroke="#FEE45D" stroke-width="0.792258"/>
    <path d="M116.56 180.243C147.821 180.484 173.1 205.808 173.285 237.07L116.509 237.019L116.56 180.243Z" stroke="#8FCFA7" stroke-width="0.792258"/>
    <rect x="1.39613" y="65.4584" width="56.7768" height="56.7768" stroke="#00AB84" stroke-width="0.792258"/>
    <path d="M116.467 237.44L58.5693 179.871V237.44H116.467Z" stroke="#FEC46D" stroke-width="0.792258"/>
    <rect x="116.534" y="238.218" width="56.7768" height="56.7768" rx="28.3884" stroke="#9BB7E0" stroke-width="0.792258"/>
    <rect x="1.39613" y="353.356" width="56.7768" height="56.7768" rx="28.3884" stroke="#9BB7E0" stroke-width="0.792258"/>
    <rect x="59.2946" y="295.787" width="56.7768" height="56.7768" rx="28.3884" stroke="#58C1A3" stroke-width="0.792258"/>
    <path d="M115.742 294.993C84.4808 294.781 59.1789 269.479 58.9668 238.218H115.742V294.993Z" stroke="#FEC46D" stroke-width="0.792258"/>
    <path d="M1.44733 352.613C1.63236 321.351 26.9123 296.027 58.1736 295.788L58.2227 352.564L1.44733 352.613Z" stroke="#FEE45D" stroke-width="0.792258"/>
    <path d="M173.311 352.562C142.049 352.35 116.747 327.048 116.535 295.787H173.311V352.562Z" stroke="#FEE45D" stroke-width="0.792258"/>
    <path d="M116.56 353.002C147.821 353.243 173.1 378.567 173.285 409.829L116.509 409.778L116.56 353.002Z" stroke="#8FCFA7" stroke-width="0.792258"/>
    <rect x="1.39613" y="238.217" width="56.7768" height="56.7768" stroke="#00AB84" stroke-width="0.792258"/>
    <path d="M116.467 410.2L58.5693 352.631V410.2H116.467Z" stroke="#FEC46D" stroke-width="0.792258"/>
    <rect x="1.39613" y="467.754" width="56.7768" height="56.7768" rx="28.3884" transform="rotate(-90 1.39613 467.754)" stroke="#9BB7E0" stroke-width="0.792258"/>
    <rect x="58.9655" y="524.994" width="56.7768" height="56.7768" rx="28.3884" transform="rotate(-90 58.9655 524.994)" stroke="#58C1A3" stroke-width="0.792258"/>
    <path d="M58.1716 468.546C57.9594 499.807 32.6576 525.109 1.39613 525.321L1.39613 468.546H58.1716Z" stroke="#FEC46D" stroke-width="0.792258"/>
    <path d="M115.741 410.977C115.529 442.238 90.2269 467.54 58.9655 467.752V410.977H115.741Z" stroke="#FEE45D" stroke-width="0.792258"/>
    <path d="M116.181 467.728C116.422 436.467 141.746 411.188 173.008 411.003L172.957 467.779L116.181 467.728Z" stroke="#8FCFA7" stroke-width="0.792258"/>
    <path d="M173.378 467.821L115.809 525.719H173.378V467.821Z" stroke="#FEC46D" stroke-width="0.792258"/>
    <rect x="289.267" y="64.6139" width="56.7768" height="56.7768" rx="28.3884" transform="rotate(-90 289.267 64.6139)" stroke="#9BB7E0" stroke-width="0.792258"/>
    <rect x="231.699" y="6.71596" width="56.7768" height="56.7768" rx="28.3884" transform="rotate(-90 231.699 6.71596)" stroke="#58C1A3" stroke-width="0.792258"/>
    <path d="M230.905 -49.7319C230.693 -18.4704 205.391 6.83142 174.13 7.04354V-49.7319H230.905Z" stroke="#FEC46D" stroke-width="0.792258"/>
    <path d="M288.525 64.563C257.264 64.378 231.94 39.0981 231.701 7.83679L288.476 7.7876L288.525 64.563Z" stroke="#FEE45D" stroke-width="0.792258"/>
    <rect x="174.13" y="64.6139" width="56.7768" height="56.7768" transform="rotate(-90 174.13 64.6139)" stroke="#00AB84" stroke-width="0.792258"/>
    <path d="M346.111 -50.457L288.542 7.44101L346.111 7.44101V-50.457Z" stroke="#FEC46D" stroke-width="0.792258"/>
    <rect x="174.13" y="122.235" width="56.7768" height="56.7768" rx="28.3884" transform="rotate(-90 174.13 122.235)" stroke="#9BB7E0" stroke-width="0.792258"/>
    <rect x="289.267" y="237.373" width="56.7768" height="56.7768" rx="28.3884" transform="rotate(-90 289.267 237.373)" stroke="#9BB7E0" stroke-width="0.792258"/>
    <rect x="231.699" y="179.475" width="56.7768" height="56.7768" rx="28.3884" transform="rotate(-90 231.699 179.475)" stroke="#58C1A3" stroke-width="0.792258"/>
    <path d="M230.905 123.027C230.693 154.289 205.391 179.591 174.13 179.803V123.027H230.905Z" stroke="#FEC46D" stroke-width="0.792258"/>
    <path d="M288.525 237.322C257.264 237.137 231.94 211.857 231.701 180.596L288.476 180.547L288.525 237.322Z" stroke="#FEE45D" stroke-width="0.792258"/>
    <path d="M288.474 65.4584C288.262 96.7198 262.96 122.022 231.699 122.234V65.4584H288.474Z" stroke="#FEE45D" stroke-width="0.792258"/>
    <path d="M288.915 122.21C289.155 90.9483 314.48 65.6692 345.741 65.4851L345.69 122.261L288.915 122.21Z" stroke="#8FCFA7" stroke-width="0.792258"/>
    <rect x="174.13" y="237.373" width="56.7768" height="56.7768" transform="rotate(-90 174.13 237.373)" stroke="#00AB84" stroke-width="0.792258"/>
    <path d="M346.111 122.302L288.542 180.2H346.111V122.302Z" stroke="#FEC46D" stroke-width="0.792258"/>
    <rect x="346.071" y="353.356" width="56.7768" height="56.7768" rx="28.3884" transform="rotate(90 346.071 353.356)" stroke="#9BB7E0" stroke-width="0.792258"/>
    <rect x="230.933" y="238.218" width="56.7768" height="56.7768" rx="28.3884" transform="rotate(90 230.933 238.218)" stroke="#9BB7E0" stroke-width="0.792258"/>
    <rect x="288.501" y="296.116" width="56.7768" height="56.7768" rx="28.3884" transform="rotate(90 288.501 296.116)" stroke="#58C1A3" stroke-width="0.792258"/>
    <path d="M289.295 352.563C289.507 321.302 314.809 296 346.071 295.788V352.563H289.295Z" stroke="#FEC46D" stroke-width="0.792258"/>
    <path d="M231.675 238.268C262.937 238.453 288.26 263.733 288.5 294.995L231.724 295.044L231.675 238.268Z" stroke="#FEE45D" stroke-width="0.792258"/>
    <path d="M231.726 410.132C231.938 378.871 257.24 353.569 288.501 353.357V410.132H231.726Z" stroke="#FEE45D" stroke-width="0.792258"/>
    <path d="M231.285 353.381C231.045 384.643 205.721 409.922 174.459 410.106L174.51 353.33L231.285 353.381Z" stroke="#8FCFA7" stroke-width="0.792258"/>
    <rect x="346.071" y="238.217" width="56.7768" height="56.7768" transform="rotate(90 346.071 238.217)" stroke="#00AB84" stroke-width="0.792258"/>
    <path d="M174.089 353.288L231.658 295.39H174.089V353.288Z" stroke="#FEC46D" stroke-width="0.792258"/>
    <rect x="289.267" y="410.977" width="56.7768" height="56.7768" rx="28.3884" stroke="#9BB7E0" stroke-width="0.792258"/>
    <rect x="232.028" y="468.546" width="56.7768" height="56.7768" rx="28.3884" stroke="#58C1A3" stroke-width="0.792258"/>
    <path d="M288.476 467.752C257.214 467.54 231.912 442.238 231.7 410.977H288.476V467.752Z" stroke="#FEC46D" stroke-width="0.792258"/>
    <path d="M174.181 525.372C174.366 494.111 199.646 468.787 230.907 468.548L230.956 525.323L174.181 525.372Z" stroke="#FEE45D" stroke-width="0.792258"/>
    <path d="M346.044 525.321C314.783 525.109 289.481 499.807 289.269 468.546H346.044V525.321Z" stroke="#FEE45D" stroke-width="0.792258"/>
    <rect x="174.13" y="410.977" width="56.7768" height="56.7768" stroke="#00AB84" stroke-width="0.792258"/>
    <rect x="518.803" y="7.83738" width="56.7768" height="56.7768" rx="28.3884" transform="rotate(90 518.803 7.83738)" stroke="#9BB7E0" stroke-width="0.792258"/>
    <rect x="461.234" y="-49.4027" width="56.7768" height="56.7768" rx="28.3884" transform="rotate(90 461.234 -49.4027)" stroke="#58C1A3" stroke-width="0.792258"/>
    <path d="M462.028 7.04513C462.24 -24.2163 487.542 -49.5182 518.803 -49.7303V7.04513H462.028Z" stroke="#FEC46D" stroke-width="0.792258"/>
    <path d="M404.458 64.6142C404.67 33.3527 429.972 8.05085 461.234 7.83873V64.6142H404.458Z" stroke="#FEE45D" stroke-width="0.792258"/>
    <path d="M404.018 7.86296C403.778 39.1242 378.453 64.4033 347.191 64.5874L347.242 7.81197L404.018 7.86296Z" stroke="#8FCFA7" stroke-width="0.792258"/>
    <path d="M346.822 7.77022L404.391 -50.1278H346.822V7.77022Z" stroke="#FEC46D" stroke-width="0.792258"/>
    <rect x="403.665" y="237.373" width="56.7768" height="56.7768" rx="28.3884" transform="rotate(180 403.665 237.373)" stroke="#9BB7E0" stroke-width="0.792258"/>
    <rect x="518.803" y="122.235" width="56.7768" height="56.7768" rx="28.3884" transform="rotate(180 518.803 122.235)" stroke="#9BB7E0" stroke-width="0.792258"/>
    <rect x="460.905" y="179.804" width="56.7768" height="56.7768" rx="28.3884" transform="rotate(180 460.905 179.804)" stroke="#58C1A3" stroke-width="0.792258"/>
    <path d="M404.457 180.598C435.718 180.81 461.02 206.112 461.232 237.373H404.457V180.598Z" stroke="#FEC46D" stroke-width="0.792258"/>
    <path d="M518.752 122.978C518.567 154.239 493.287 179.563 462.026 179.802L461.976 123.027L518.752 122.978Z" stroke="#FEE45D" stroke-width="0.792258"/>
    <path d="M346.889 123.029C378.15 123.241 403.452 148.543 403.664 179.804H346.889V123.029Z" stroke="#FEE45D" stroke-width="0.792258"/>
    <path d="M403.639 122.588C372.378 122.348 347.099 97.0236 346.915 65.762L403.69 65.813L403.639 122.588Z" stroke="#8FCFA7" stroke-width="0.792258"/>
    <rect x="518.803" y="237.373" width="56.7768" height="56.7768" transform="rotate(180 518.803 237.373)" stroke="#00AB84" stroke-width="0.792258"/>
    <path d="M403.732 65.3912L461.63 122.96V65.3912H403.732Z" stroke="#FEC46D" stroke-width="0.792258"/>
    <rect x="518.803" y="353.356" width="56.7768" height="56.7768" rx="28.3884" transform="rotate(90 518.803 353.356)" stroke="#9BB7E0" stroke-width="0.792258"/>
    <rect x="403.665" y="238.218" width="56.7768" height="56.7768" rx="28.3884" transform="rotate(90 403.665 238.218)" stroke="#9BB7E0" stroke-width="0.792258"/>
    <rect x="461.234" y="296.116" width="56.7768" height="56.7768" rx="28.3884" transform="rotate(90 461.234 296.116)" stroke="#58C1A3" stroke-width="0.792258"/>
    <path d="M462.028 352.563C462.24 321.302 487.542 296 518.803 295.788V352.563H462.028Z" stroke="#FEC46D" stroke-width="0.792258"/>
    <path d="M404.407 238.268C435.669 238.453 460.993 263.733 461.232 294.995L404.457 295.044L404.407 238.268Z" stroke="#FEE45D" stroke-width="0.792258"/>
    <path d="M404.458 410.132C404.67 378.871 429.972 353.569 461.234 353.357V410.132H404.458Z" stroke="#FEE45D" stroke-width="0.792258"/>
    <path d="M404.018 353.381C403.778 384.643 378.453 409.922 347.191 410.106L347.242 353.33L404.018 353.381Z" stroke="#8FCFA7" stroke-width="0.792258"/>
    <rect x="518.803" y="238.217" width="56.7768" height="56.7768" transform="rotate(90 518.803 238.217)" stroke="#00AB84" stroke-width="0.792258"/>
    <path d="M346.822 353.288L404.391 295.39H346.822V353.288Z" stroke="#FEC46D" stroke-width="0.792258"/>
    <rect x="403.665" y="410.977" width="56.7768" height="56.7768" rx="28.3884" transform="rotate(90 403.665 410.977)" stroke="#9BB7E0" stroke-width="0.792258"/>
    <rect x="461.234" y="468.875" width="56.7768" height="56.7768" rx="28.3884" transform="rotate(90 461.234 468.875)" stroke="#58C1A3" stroke-width="0.792258"/>
    <path d="M462.028 525.323C462.24 494.061 487.542 468.759 518.803 468.547V525.323H462.028Z" stroke="#FEC46D" stroke-width="0.792258"/>
    <path d="M404.407 411.028C435.669 411.213 460.993 436.493 461.232 467.754L404.457 467.803L404.407 411.028Z" stroke="#FEE45D" stroke-width="0.792258"/>
    <rect x="518.803" y="410.977" width="56.7768" height="56.7768" transform="rotate(90 518.803 410.977)" stroke="#00AB84" stroke-width="0.792258"/>
    <path d="M346.822 526.048L404.391 468.15H346.822V526.048Z" stroke="#FEC46D" stroke-width="0.792258"/>
    <rect x="634.733" y="64.6139" width="56.7768" height="56.7768" rx="28.3884" transform="rotate(-90 634.733 64.6139)" stroke="#9BB7E0" stroke-width="0.792258"/>
    <rect x="577.165" y="6.71596" width="56.7768" height="56.7768" rx="28.3884" transform="rotate(-90 577.165 6.71596)" stroke="#58C1A3" stroke-width="0.792258"/>
    <path d="M576.371 -49.7319C576.159 -18.4704 550.857 6.83142 519.595 7.04354V-49.7319H576.371Z" stroke="#FEC46D" stroke-width="0.792258"/>
    <path d="M633.991 64.563C602.729 64.378 577.406 39.0981 577.166 7.83679L633.942 7.7876L633.991 64.563Z" stroke="#FEE45D" stroke-width="0.792258"/>
    <rect x="519.595" y="64.6139" width="56.7768" height="56.7768" transform="rotate(-90 519.595 64.6139)" stroke="#00AB84" stroke-width="0.792258"/>
    <path d="M691.578 -50.457L634.009 7.44101L691.578 7.44101V-50.457Z" stroke="#FEC46D" stroke-width="0.792258"/>
    <rect x="576.399" y="237.373" width="56.7768" height="56.7768" rx="28.3884" transform="rotate(180 576.399 237.373)" stroke="#9BB7E0" stroke-width="0.792258"/>
    <rect x="691.536" y="122.235" width="56.7768" height="56.7768" rx="28.3884" transform="rotate(180 691.536 122.235)" stroke="#9BB7E0" stroke-width="0.792258"/>
    <rect x="633.638" y="179.804" width="56.7768" height="56.7768" rx="28.3884" transform="rotate(180 633.638 179.804)" stroke="#58C1A3" stroke-width="0.792258"/>
    <path d="M577.19 180.598C608.452 180.81 633.754 206.112 633.966 237.373H577.19V180.598Z" stroke="#FEC46D" stroke-width="0.792258"/>
    <path d="M691.485 122.978C691.3 154.239 666.02 179.563 634.759 179.802L634.71 123.027L691.485 122.978Z" stroke="#FEE45D" stroke-width="0.792258"/>
    <path d="M519.622 123.029C550.883 123.241 576.185 148.543 576.397 179.804H519.622V123.029Z" stroke="#FEE45D" stroke-width="0.792258"/>
    <path d="M576.373 122.588C545.111 122.348 519.832 97.0236 519.648 65.762L576.424 65.813L576.373 122.588Z" stroke="#8FCFA7" stroke-width="0.792258"/>
    <rect x="691.536" y="237.373" width="56.7768" height="56.7768" transform="rotate(180 691.536 237.373)" stroke="#00AB84" stroke-width="0.792258"/>
    <path d="M576.465 65.3912L634.363 122.96V65.3912H576.465Z" stroke="#FEC46D" stroke-width="0.792258"/>
    <rect x="519.595" y="294.994" width="56.7768" height="56.7768" rx="28.3884" transform="rotate(-90 519.595 294.994)" stroke="#9BB7E0" stroke-width="0.792258"/>
    <rect x="634.733" y="410.133" width="56.7768" height="56.7768" rx="28.3884" transform="rotate(-90 634.733 410.133)" stroke="#9BB7E0" stroke-width="0.792258"/>
    <rect x="577.165" y="352.235" width="56.7768" height="56.7768" rx="28.3884" transform="rotate(-90 577.165 352.235)" stroke="#58C1A3" stroke-width="0.792258"/>
    <path d="M576.371 295.787C576.159 327.048 550.857 352.35 519.595 352.562V295.787H576.371Z" stroke="#FEC46D" stroke-width="0.792258"/>
    <path d="M633.991 410.082C602.729 409.897 577.406 384.617 577.166 353.355L633.942 353.306L633.991 410.082Z" stroke="#FEE45D" stroke-width="0.792258"/>
    <path d="M633.94 238.218C633.728 269.479 608.426 294.781 577.165 294.993V238.218H633.94Z" stroke="#FEE45D" stroke-width="0.792258"/>
    <path d="M634.381 294.969C634.621 263.708 659.945 238.428 691.207 238.244L691.156 295.02L634.381 294.969Z" stroke="#8FCFA7" stroke-width="0.792258"/>
    <rect x="519.595" y="410.133" width="56.7768" height="56.7768" transform="rotate(-90 519.595 410.133)" stroke="#00AB84" stroke-width="0.792258"/>
    <path d="M691.578 295.062L634.009 352.96H691.578V295.062Z" stroke="#FEC46D" stroke-width="0.792258"/>
    <rect x="691.536" y="467.754" width="56.7768" height="56.7768" rx="28.3884" transform="rotate(180 691.536 467.754)" stroke="#9BB7E0" stroke-width="0.792258"/>
    <rect x="633.638" y="525.323" width="56.7768" height="56.7768" rx="28.3884" transform="rotate(180 633.638 525.323)" stroke="#58C1A3" stroke-width="0.792258"/>
    <path d="M691.485 468.496C691.3 499.758 666.02 525.082 634.759 525.321L634.71 468.546L691.485 468.496Z" stroke="#FEE45D" stroke-width="0.792258"/>
    <path d="M519.622 468.547C550.883 468.759 576.185 494.061 576.397 525.323H519.622V468.547Z" stroke="#FEE45D" stroke-width="0.792258"/>
    <path d="M576.373 468.107C545.111 467.867 519.832 442.542 519.648 411.28L576.424 411.331L576.373 468.107Z" stroke="#8FCFA7" stroke-width="0.792258"/>
    <path d="M576.465 410.91L634.363 468.479V410.91H576.465Z" stroke="#FEC46D" stroke-width="0.792258"/>
    <rect x="807.466" y="64.6139" width="56.7768" height="56.7768" rx="28.3884" transform="rotate(-90 807.466 64.6139)" stroke="#9BB7E0" stroke-width="0.792258"/>
    <rect x="749.898" y="6.71596" width="56.7768" height="56.7768" rx="28.3884" transform="rotate(-90 749.898 6.71596)" stroke="#58C1A3" stroke-width="0.792258"/>
    <path d="M749.104 -49.7319C748.892 -18.4704 723.59 6.83142 692.329 7.04354V-49.7319H749.104Z" stroke="#FEC46D" stroke-width="0.792258"/>
    <path d="M806.724 64.563C775.463 64.378 750.139 39.0981 749.9 7.83679L806.675 7.7876L806.724 64.563Z" stroke="#FEE45D" stroke-width="0.792258"/>
    <rect x="692.329" y="64.6139" width="56.7768" height="56.7768" transform="rotate(-90 692.329 64.6139)" stroke="#00AB84" stroke-width="0.792258"/>
    <path d="M864.311 -50.457L806.742 7.44101L864.311 7.44101V-50.457Z" stroke="#FEC46D" stroke-width="0.792258"/>
    <rect x="864.27" y="180.596" width="56.7768" height="56.7768" rx="28.3884" transform="rotate(90 864.27 180.596)" stroke="#9BB7E0" stroke-width="0.792258"/>
    <rect x="749.132" y="65.4584" width="56.7768" height="56.7768" rx="28.3884" transform="rotate(90 749.132 65.4584)" stroke="#9BB7E0" stroke-width="0.792258"/>
    <rect x="806.701" y="123.356" width="56.7768" height="56.7768" rx="28.3884" transform="rotate(90 806.701 123.356)" stroke="#58C1A3" stroke-width="0.792258"/>
    <path d="M807.494 179.804C807.707 148.543 833.008 123.241 864.27 123.029V179.804H807.494Z" stroke="#FEC46D" stroke-width="0.792258"/>
    <path d="M749.874 65.5092C781.136 65.6943 806.46 90.9742 806.699 122.235L749.923 122.285L749.874 65.5092Z" stroke="#FEE45D" stroke-width="0.792258"/>
    <path d="M749.925 237.373C750.137 206.112 775.439 180.81 806.701 180.598V237.373H749.925Z" stroke="#FEE45D" stroke-width="0.792258"/>
    <path d="M749.485 180.622C749.244 211.883 723.92 237.163 692.658 237.347L692.709 180.571L749.485 180.622Z" stroke="#8FCFA7" stroke-width="0.792258"/>
    <rect x="864.27" y="65.4584" width="56.7768" height="56.7768" transform="rotate(90 864.27 65.4584)" stroke="#00AB84" stroke-width="0.792258"/>
    <path d="M692.287 180.529L749.856 122.631H692.287V180.529Z" stroke="#FEC46D" stroke-width="0.792258"/>
    <rect x="749.132" y="410.133" width="56.7768" height="56.7768" rx="28.3884" transform="rotate(180 749.132 410.133)" stroke="#9BB7E0" stroke-width="0.792258"/>
    <rect x="864.27" y="294.994" width="56.7768" height="56.7768" rx="28.3884" transform="rotate(180 864.27 294.994)" stroke="#9BB7E0" stroke-width="0.792258"/>
    <rect x="806.371" y="352.563" width="56.7768" height="56.7768" rx="28.3884" transform="rotate(180 806.371 352.563)" stroke="#58C1A3" stroke-width="0.792258"/>
    <path d="M749.924 353.357C781.185 353.569 806.487 378.871 806.699 410.133H749.924V353.357Z" stroke="#FEC46D" stroke-width="0.792258"/>
    <path d="M864.219 295.737C864.034 326.999 838.754 352.323 807.492 352.562L807.443 295.786L864.219 295.737Z" stroke="#FEE45D" stroke-width="0.792258"/>
    <path d="M692.355 295.788C723.617 296 748.919 321.302 749.131 352.563H692.355V295.788Z" stroke="#FEE45D" stroke-width="0.792258"/>
    <path d="M749.106 295.348C717.845 295.107 692.566 269.783 692.381 238.521L749.157 238.572L749.106 295.348Z" stroke="#8FCFA7" stroke-width="0.792258"/>
    <rect x="864.27" y="410.133" width="56.7768" height="56.7768" transform="rotate(180 864.27 410.133)" stroke="#00AB84" stroke-width="0.792258"/>
    <path d="M749.199 238.151L807.097 295.72V238.151H749.199Z" stroke="#FEC46D" stroke-width="0.792258"/>
    <rect x="692.329" y="467.754" width="56.7768" height="56.7768" rx="28.3884" transform="rotate(-90 692.329 467.754)" stroke="#9BB7E0" stroke-width="0.792258"/>
    <rect x="749.898" y="524.994" width="56.7768" height="56.7768" rx="28.3884" transform="rotate(-90 749.898 524.994)" stroke="#58C1A3" stroke-width="0.792258"/>
    <path d="M749.104 468.546C748.892 499.807 723.59 525.109 692.329 525.321V468.546H749.104Z" stroke="#FEC46D" stroke-width="0.792258"/>
    <path d="M806.674 410.977C806.461 442.238 781.16 467.54 749.898 467.752V410.977H806.674Z" stroke="#FEE45D" stroke-width="0.792258"/>
    <path d="M807.114 467.728C807.354 436.467 832.679 411.188 863.94 411.003L863.889 467.779L807.114 467.728Z" stroke="#8FCFA7" stroke-width="0.792258"/>
    <path d="M864.311 467.821L806.742 525.719H864.311V467.821Z" stroke="#FEC46D" stroke-width="0.792258"/>
    <rect x="921.865" y="64.6139" width="56.7768" height="56.7768" rx="28.3884" transform="rotate(180 921.865 64.6139)" stroke="#9BB7E0" stroke-width="0.792258"/>
    <rect x="979.105" y="7.04488" width="56.7768" height="56.7768" rx="28.3884" transform="rotate(180 979.105 7.04488)" stroke="#58C1A3" stroke-width="0.792258"/>
    <path d="M922.656 7.83848C953.918 8.0506 979.22 33.3524 979.432 64.6139H922.656V7.83848Z" stroke="#FEC46D" stroke-width="0.792258"/>
    <path d="M1036.95 -49.7814C1036.77 -18.5198 1011.49 6.80399 980.225 7.04319L980.176 -49.7322L1036.95 -49.7814Z" stroke="#FEE45D" stroke-width="0.792258"/>
    <path d="M865.088 -49.7306C896.349 -49.5184 921.651 -24.2166 921.863 7.04488L865.088 7.04488V-49.7306Z" stroke="#FEE45D" stroke-width="0.792258"/>
    <rect x="1037" y="64.6139" width="56.7768" height="56.7768" transform="rotate(180 1037 64.6139)" stroke="#00AB84" stroke-width="0.792258"/>
    <rect x="921.865" y="237.373" width="56.7768" height="56.7768" rx="28.3884" transform="rotate(180 921.865 237.373)" stroke="#9BB7E0" stroke-width="0.792258"/>
    <rect x="1037" y="122.235" width="56.7768" height="56.7768" rx="28.3884" transform="rotate(180 1037 122.235)" stroke="#9BB7E0" stroke-width="0.792258"/>
    <rect x="979.105" y="179.804" width="56.7768" height="56.7768" rx="28.3884" transform="rotate(180 979.105 179.804)" stroke="#58C1A3" stroke-width="0.792258"/>
    <path d="M922.656 180.598C953.918 180.81 979.22 206.112 979.432 237.373H922.656V180.598Z" stroke="#FEC46D" stroke-width="0.792258"/>
    <path d="M1036.95 122.978C1036.77 154.239 1011.49 179.563 980.225 179.802L980.176 123.027L1036.95 122.978Z" stroke="#FEE45D" stroke-width="0.792258"/>
    <path d="M865.088 123.029C896.349 123.241 921.651 148.543 921.863 179.804H865.088V123.029Z" stroke="#FEE45D" stroke-width="0.792258"/>
    <path d="M921.838 122.588C890.577 122.348 865.298 97.0236 865.114 65.762L921.889 65.813L921.838 122.588Z" stroke="#8FCFA7" stroke-width="0.792258"/>
    <rect x="1037" y="237.373" width="56.7768" height="56.7768" transform="rotate(180 1037 237.373)" stroke="#00AB84" stroke-width="0.792258"/>
    <path d="M921.931 65.3912L979.829 122.96V65.3912H921.931Z" stroke="#FEC46D" stroke-width="0.792258"/>
    <rect x="865.062" y="294.994" width="56.7768" height="56.7768" rx="28.3884" transform="rotate(-90 865.062 294.994)" stroke="#9BB7E0" stroke-width="0.792258"/>
    <rect x="980.2" y="410.133" width="56.7768" height="56.7768" rx="28.3884" transform="rotate(-90 980.2 410.133)" stroke="#9BB7E0" stroke-width="0.792258"/>
    <rect x="922.631" y="352.235" width="56.7768" height="56.7768" rx="28.3884" transform="rotate(-90 922.631 352.235)" stroke="#58C1A3" stroke-width="0.792258"/>
    <path d="M921.838 295.787C921.625 327.048 896.324 352.35 865.062 352.562V295.787H921.838Z" stroke="#FEC46D" stroke-width="0.792258"/>
    <path d="M979.458 410.082C948.196 409.897 922.872 384.617 922.633 353.355L979.409 353.306L979.458 410.082Z" stroke="#FEE45D" stroke-width="0.792258"/>
    <path d="M979.407 238.218C979.195 269.479 953.893 294.781 922.631 294.993V238.218H979.407Z" stroke="#FEE45D" stroke-width="0.792258"/>
    <path d="M979.847 294.969C980.088 263.708 1005.41 238.428 1036.67 238.244L1036.62 295.02L979.847 294.969Z" stroke="#8FCFA7" stroke-width="0.792258"/>
    <rect x="865.062" y="410.133" width="56.7768" height="56.7768" transform="rotate(-90 865.062 410.133)" stroke="#00AB84" stroke-width="0.792258"/>
    <path d="M1037.04 295.062L979.476 352.96H1037.04V295.062Z" stroke="#FEC46D" stroke-width="0.792258"/>
    <rect x="980.2" y="410.977" width="56.7768" height="56.7768" rx="28.3884" stroke="#9BB7E0" stroke-width="0.792258"/>
    <rect x="922.961" y="468.546" width="56.7768" height="56.7768" rx="28.3884" stroke="#58C1A3" stroke-width="0.792258"/>
    <path d="M979.408 467.752C948.147 467.54 922.845 442.238 922.633 410.977H979.408V467.752Z" stroke="#FEC46D" stroke-width="0.792258"/>
    <path d="M865.113 525.372C865.298 494.111 890.578 468.787 921.84 468.548L921.889 525.323L865.113 525.372Z" stroke="#FEE45D" stroke-width="0.792258"/>
    <path d="M1036.98 525.321C1005.72 525.109 980.413 499.807 980.201 468.546H1036.98V525.321Z" stroke="#FEE45D" stroke-width="0.792258"/>
    <rect x="865.062" y="410.977" width="56.7768" height="56.7768" stroke="#00AB84" stroke-width="0.792258"/>
    <rect x="1094.6" y="64.6139" width="56.7768" height="56.7768" rx="28.3884" transform="rotate(180 1094.6 64.6139)" stroke="#9BB7E0" stroke-width="0.792258"/>
    <rect x="1151.84" y="7.04488" width="56.7768" height="56.7768" rx="28.3884" transform="rotate(180 1151.84 7.04488)" stroke="#58C1A3" stroke-width="0.792258"/>
    <path d="M1095.39 7.83848C1126.65 8.0506 1151.95 33.3524 1152.17 64.6139H1095.39V7.83848Z" stroke="#FEC46D" stroke-width="0.792258"/>
    <path d="M1209.68 -49.7814C1209.5 -18.5198 1184.22 6.80399 1152.96 7.04319L1152.91 -49.7322L1209.68 -49.7814Z" stroke="#FEE45D" stroke-width="0.792258"/>
    <path d="M1037.82 -49.7306C1069.08 -49.5184 1094.38 -24.2166 1094.6 7.04488L1037.82 7.04488V-49.7306Z" stroke="#FEE45D" stroke-width="0.792258"/>
    <rect x="1209.74" y="64.6139" width="56.7768" height="56.7768" transform="rotate(180 1209.74 64.6139)" stroke="#00AB84" stroke-width="0.792258"/>
    <rect x="1094.6" y="237.373" width="56.7768" height="56.7768" rx="28.3884" transform="rotate(180 1094.6 237.373)" stroke="#9BB7E0" stroke-width="0.792258"/>
    <rect x="1209.74" y="122.235" width="56.7768" height="56.7768" rx="28.3884" transform="rotate(180 1209.74 122.235)" stroke="#9BB7E0" stroke-width="0.792258"/>
    <rect x="1151.84" y="179.804" width="56.7768" height="56.7768" rx="28.3884" transform="rotate(180 1151.84 179.804)" stroke="#58C1A3" stroke-width="0.792258"/>
    <path d="M1095.39 180.598C1126.65 180.81 1151.95 206.112 1152.17 237.373H1095.39V180.598Z" stroke="#FEC46D" stroke-width="0.792258"/>
    <path d="M1209.68 122.978C1209.5 154.239 1184.22 179.563 1152.96 179.802L1152.91 123.027L1209.68 122.978Z" stroke="#FEE45D" stroke-width="0.792258"/>
    <path d="M1037.82 123.029C1069.08 123.241 1094.38 148.543 1094.6 179.804H1037.82V123.029Z" stroke="#FEE45D" stroke-width="0.792258"/>
    <path d="M1094.57 122.588C1063.31 122.348 1038.03 97.0236 1037.85 65.762L1094.62 65.813L1094.57 122.588Z" stroke="#8FCFA7" stroke-width="0.792258"/>
    <rect x="1209.74" y="237.373" width="56.7768" height="56.7768" transform="rotate(180 1209.74 237.373)" stroke="#00AB84" stroke-width="0.792258"/>
    <path d="M1094.66 65.3912L1152.56 122.96V65.3912H1094.66Z" stroke="#FEC46D" stroke-width="0.792258"/>
    <rect x="1037.79" y="294.994" width="56.7768" height="56.7768" rx="28.3884" transform="rotate(-90 1037.79 294.994)" stroke="#9BB7E0" stroke-width="0.792258"/>
    <rect x="1152.93" y="410.133" width="56.7768" height="56.7768" rx="28.3884" transform="rotate(-90 1152.93 410.133)" stroke="#9BB7E0" stroke-width="0.792258"/>
    <rect x="1095.36" y="352.235" width="56.7768" height="56.7768" rx="28.3884" transform="rotate(-90 1095.36 352.235)" stroke="#58C1A3" stroke-width="0.792258"/>
    <path d="M1094.57 295.787C1094.36 327.048 1069.06 352.35 1037.79 352.562V295.787H1094.57Z" stroke="#FEC46D" stroke-width="0.792258"/>
    <path d="M1152.19 410.082C1120.93 409.897 1095.6 384.617 1095.37 353.355L1152.14 353.306L1152.19 410.082Z" stroke="#FEE45D" stroke-width="0.792258"/>
    <path d="M1152.14 238.218C1151.93 269.479 1126.63 294.781 1095.36 294.993V238.218H1152.14Z" stroke="#FEE45D" stroke-width="0.792258"/>
    <path d="M1152.58 294.969C1152.82 263.708 1178.14 238.428 1209.41 238.244L1209.36 295.02L1152.58 294.969Z" stroke="#8FCFA7" stroke-width="0.792258"/>
    <rect x="1037.79" y="410.133" width="56.7768" height="56.7768" transform="rotate(-90 1037.79 410.133)" stroke="#00AB84" stroke-width="0.792258"/>
    <path d="M1209.78 295.062L1152.21 352.96H1209.78V295.062Z" stroke="#FEC46D" stroke-width="0.792258"/>
    <rect x="1094.6" y="410.977" width="56.7768" height="56.7768" rx="28.3884" transform="rotate(90 1094.6 410.977)" stroke="#9BB7E0" stroke-width="0.792258"/>
    <rect x="1152.17" y="468.875" width="56.7768" height="56.7768" rx="28.3884" transform="rotate(90 1152.17 468.875)" stroke="#58C1A3" stroke-width="0.792258"/>
    <path d="M1152.96 525.323C1153.17 494.061 1178.47 468.759 1209.74 468.547V525.323H1152.96Z" stroke="#FEC46D" stroke-width="0.792258"/>
    <path d="M1095.34 411.028C1126.6 411.213 1151.93 436.493 1152.16 467.754L1095.39 467.803L1095.34 411.028Z" stroke="#FEE45D" stroke-width="0.792258"/>
    <rect x="1209.74" y="410.977" width="56.7768" height="56.7768" transform="rotate(90 1209.74 410.977)" stroke="#00AB84" stroke-width="0.792258"/>
    <path d="M1037.75 526.048L1095.32 468.15H1037.75V526.048Z" stroke="#FEC46D" stroke-width="0.792258"/>
    <rect x="1210.53" y="7.83738" width="56.7768" height="56.7768" rx="28.3884" stroke="#9BB7E0" stroke-width="0.792258"/>
    <rect x="1268.43" y="-49.7316" width="56.7768" height="56.7768" rx="28.3884" stroke="#58C1A3" stroke-width="0.792258"/>
    <path d="M1210.58 7.09464C1210.76 -24.167 1236.04 -49.4908 1267.31 -49.73L1267.35 7.04545L1210.58 7.09464Z" stroke="#FEE45D" stroke-width="0.792258"/>
    <path d="M1382.44 7.04379C1351.18 6.83167 1325.88 -18.4702 1325.67 -49.7316H1382.44V7.04379Z" stroke="#FEE45D" stroke-width="0.792258"/>
    <path d="M1325.69 7.48415C1356.95 7.72434 1382.23 33.0489 1382.42 64.3105L1325.64 64.2596L1325.69 7.48415Z" stroke="#8FCFA7" stroke-width="0.792258"/>
    <path d="M1325.6 64.6813L1267.7 7.11224V64.6813H1325.6Z" stroke="#FEC46D" stroke-width="0.792258"/>
    <rect x="1210.53" y="122.235" width="56.7768" height="56.7768" rx="28.3884" transform="rotate(-90 1210.53 122.235)" stroke="#9BB7E0" stroke-width="0.792258"/>
    <rect x="1325.67" y="237.373" width="56.7768" height="56.7768" rx="28.3884" transform="rotate(-90 1325.67 237.373)" stroke="#9BB7E0" stroke-width="0.792258"/>
    <rect x="1268.1" y="179.475" width="56.7768" height="56.7768" rx="28.3884" transform="rotate(-90 1268.1 179.475)" stroke="#58C1A3" stroke-width="0.792258"/>
    <path d="M1267.3 123.027C1267.09 154.289 1241.79 179.591 1210.53 179.803V123.027H1267.3Z" stroke="#FEC46D" stroke-width="0.792258"/>
    <path d="M1324.92 237.322C1293.66 237.137 1268.34 211.857 1268.1 180.596L1324.87 180.547L1324.92 237.322Z" stroke="#FEE45D" stroke-width="0.792258"/>
    <path d="M1324.87 65.4584C1324.66 96.7198 1299.36 122.022 1268.1 122.234V65.4584H1324.87Z" stroke="#FEE45D" stroke-width="0.792258"/>
    <path d="M1325.31 122.21C1325.55 90.9483 1350.88 65.6692 1382.14 65.4851L1382.09 122.261L1325.31 122.21Z" stroke="#8FCFA7" stroke-width="0.792258"/>
    <rect x="1210.53" y="237.373" width="56.7768" height="56.7768" transform="rotate(-90 1210.53 237.373)" stroke="#00AB84" stroke-width="0.792258"/>
    <path d="M1382.51 122.302L1324.94 180.2H1382.51V122.302Z" stroke="#FEC46D" stroke-width="0.792258"/>
    <rect x="1210.53" y="294.994" width="56.7768" height="56.7768" rx="28.3884" transform="rotate(-90 1210.53 294.994)" stroke="#9BB7E0" stroke-width="0.792258"/>
    <rect x="1325.67" y="410.133" width="56.7768" height="56.7768" rx="28.3884" transform="rotate(-90 1325.67 410.133)" stroke="#9BB7E0" stroke-width="0.792258"/>
    <rect x="1268.1" y="352.235" width="56.7768" height="56.7768" rx="28.3884" transform="rotate(-90 1268.1 352.235)" stroke="#58C1A3" stroke-width="0.792258"/>
    <path d="M1267.3 295.787C1267.09 327.048 1241.79 352.35 1210.53 352.562V295.787H1267.3Z" stroke="#FEC46D" stroke-width="0.792258"/>
    <path d="M1324.92 410.082C1293.66 409.897 1268.34 384.617 1268.1 353.355L1324.87 353.306L1324.92 410.082Z" stroke="#FEE45D" stroke-width="0.792258"/>
    <path d="M1324.87 238.218C1324.66 269.479 1299.36 294.781 1268.1 294.993V238.218H1324.87Z" stroke="#FEE45D" stroke-width="0.792258"/>
    <path d="M1325.31 294.969C1325.55 263.708 1350.88 238.428 1382.14 238.244L1382.09 295.02L1325.31 294.969Z" stroke="#8FCFA7" stroke-width="0.792258"/>
    <rect x="1210.53" y="410.133" width="56.7768" height="56.7768" transform="rotate(-90 1210.53 410.133)" stroke="#00AB84" stroke-width="0.792258"/>
    <path d="M1382.51 295.062L1324.94 352.96H1382.51V295.062Z" stroke="#FEC46D" stroke-width="0.792258"/>
    <rect x="1325.67" y="410.977" width="56.7768" height="56.7768" rx="28.3884" stroke="#9BB7E0" stroke-width="0.792258"/>
    <rect x="1268.43" y="468.546" width="56.7768" height="56.7768" rx="28.3884" stroke="#58C1A3" stroke-width="0.792258"/>
    <path d="M1324.87 467.752C1293.61 467.54 1268.31 442.238 1268.1 410.977H1324.87V467.752Z" stroke="#FEC46D" stroke-width="0.792258"/>
    <path d="M1210.58 525.372C1210.76 494.111 1236.04 468.787 1267.31 468.548L1267.35 525.323L1210.58 525.372Z" stroke="#FEE45D" stroke-width="0.792258"/>
    <path d="M1382.44 525.321C1351.18 525.109 1325.88 499.807 1325.67 468.546H1382.44V525.321Z" stroke="#FEE45D" stroke-width="0.792258"/>
    <rect x="1210.53" y="410.977" width="56.7768" height="56.7768" stroke="#00AB84" stroke-width="0.792258"/>
    <rect x="1383.26" y="7.83738" width="56.7768" height="56.7768" rx="28.3884" stroke="#9BB7E0" stroke-width="0.792258"/>
    <rect x="1441.16" y="-49.7316" width="56.7768" height="56.7768" rx="28.3884" stroke="#58C1A3" stroke-width="0.792258"/>
    <path d="M1383.31 7.09464C1383.5 -24.167 1408.78 -49.4908 1440.04 -49.73L1440.09 7.04545L1383.31 7.09464Z" stroke="#FEE45D" stroke-width="0.792258"/>
    <path d="M1555.18 7.04379C1523.91 6.83167 1498.61 -18.4702 1498.4 -49.7316H1555.18V7.04379Z" stroke="#FEE45D" stroke-width="0.792258"/>
    <path d="M1498.43 7.48415C1529.69 7.72434 1554.97 33.0489 1555.15 64.3105L1498.37 64.2596L1498.43 7.48415Z" stroke="#8FCFA7" stroke-width="0.792258"/>
    <path d="M1498.33 64.6813L1440.43 7.11224V64.6813H1498.33Z" stroke="#FEC46D" stroke-width="0.792258"/>
    <rect x="1383.26" y="122.235" width="56.7768" height="56.7768" rx="28.3884" transform="rotate(-90 1383.26 122.235)" stroke="#9BB7E0" stroke-width="0.792258"/>
    <rect x="1498.4" y="237.373" width="56.7768" height="56.7768" rx="28.3884" transform="rotate(-90 1498.4 237.373)" stroke="#9BB7E0" stroke-width="0.792258"/>
    <rect x="1440.83" y="179.475" width="56.7768" height="56.7768" rx="28.3884" transform="rotate(-90 1440.83 179.475)" stroke="#58C1A3" stroke-width="0.792258"/>
    <path d="M1440.04 123.027C1439.82 154.289 1414.52 179.591 1383.26 179.803V123.027H1440.04Z" stroke="#FEC46D" stroke-width="0.792258"/>
    <path d="M1497.66 237.322C1466.4 237.137 1441.07 211.857 1440.83 180.596L1497.61 180.547L1497.66 237.322Z" stroke="#FEE45D" stroke-width="0.792258"/>
    <path d="M1497.61 65.4584C1497.39 96.7198 1472.09 122.022 1440.83 122.234V65.4584H1497.61Z" stroke="#FEE45D" stroke-width="0.792258"/>
    <path d="M1498.05 122.21C1498.29 90.9483 1523.61 65.6692 1554.87 65.4851L1554.82 122.261L1498.05 122.21Z" stroke="#8FCFA7" stroke-width="0.792258"/>
    <rect x="1383.26" y="237.373" width="56.7768" height="56.7768" transform="rotate(-90 1383.26 237.373)" stroke="#00AB84" stroke-width="0.792258"/>
    <path d="M1555.24 122.302L1497.67 180.2H1555.24V122.302Z" stroke="#FEC46D" stroke-width="0.792258"/>
    <rect x="1555.2" y="353.356" width="56.7768" height="56.7768" rx="28.3884" transform="rotate(90 1555.2 353.356)" stroke="#9BB7E0" stroke-width="0.792258"/>
    <rect x="1440.06" y="238.218" width="56.7768" height="56.7768" rx="28.3884" transform="rotate(90 1440.06 238.218)" stroke="#9BB7E0" stroke-width="0.792258"/>
    <rect x="1497.63" y="296.116" width="56.7768" height="56.7768" rx="28.3884" transform="rotate(90 1497.63 296.116)" stroke="#58C1A3" stroke-width="0.792258"/>
    <path d="M1498.43 352.563C1498.64 321.302 1523.94 296 1555.2 295.788V352.563H1498.43Z" stroke="#FEC46D" stroke-width="0.792258"/>
    <path d="M1440.81 238.268C1472.07 238.453 1497.39 263.733 1497.63 294.995L1440.86 295.044L1440.81 238.268Z" stroke="#FEE45D" stroke-width="0.792258"/>
    <path d="M1440.86 410.132C1441.07 378.871 1466.37 353.569 1497.63 353.357V410.132H1440.86Z" stroke="#FEE45D" stroke-width="0.792258"/>
    <path d="M1440.42 353.381C1440.18 384.643 1414.85 409.922 1383.59 410.106L1383.64 353.33L1440.42 353.381Z" stroke="#8FCFA7" stroke-width="0.792258"/>
    <rect x="1555.2" y="238.217" width="56.7768" height="56.7768" transform="rotate(90 1555.2 238.217)" stroke="#00AB84" stroke-width="0.792258"/>
    <path d="M1383.22 353.288L1440.79 295.39H1383.22V353.288Z" stroke="#FEC46D" stroke-width="0.792258"/>
    <rect x="1555.2" y="467.754" width="56.7768" height="56.7768" rx="28.3884" transform="rotate(180 1555.2 467.754)" stroke="#9BB7E0" stroke-width="0.792258"/>
    <rect x="1497.3" y="525.323" width="56.7768" height="56.7768" rx="28.3884" transform="rotate(180 1497.3 525.323)" stroke="#58C1A3" stroke-width="0.792258"/>
    <path d="M1555.15 468.496C1554.97 499.758 1529.69 525.082 1498.42 525.321L1498.37 468.546L1555.15 468.496Z" stroke="#FEE45D" stroke-width="0.792258"/>
    <path d="M1383.29 468.547C1414.55 468.759 1439.85 494.061 1440.06 525.323H1383.29V468.547Z" stroke="#FEE45D" stroke-width="0.792258"/>
    <path d="M1440.04 468.107C1408.78 467.867 1383.5 442.542 1383.31 411.28L1440.09 411.331L1440.04 468.107Z" stroke="#8FCFA7" stroke-width="0.792258"/>
    <path d="M1440.13 410.91L1498.03 468.479V410.91H1440.13Z" stroke="#FEC46D" stroke-width="0.792258"/>
    <rect x="1727.93" y="7.83738" width="56.7768" height="56.7768" rx="28.3884" transform="rotate(90 1727.93 7.83738)" stroke="#9BB7E0" stroke-width="0.792258"/>
    <rect x="1670.37" y="-49.4027" width="56.7768" height="56.7768" rx="28.3884" transform="rotate(90 1670.37 -49.4027)" stroke="#58C1A3" stroke-width="0.792258"/>
    <path d="M1671.16 7.04513C1671.37 -24.2163 1696.67 -49.5182 1727.93 -49.7303V7.04513H1671.16Z" stroke="#FEC46D" stroke-width="0.792258"/>
    <path d="M1613.59 64.6142C1613.8 33.3527 1639.1 8.05085 1670.37 7.83873V64.6142H1613.59Z" stroke="#FEE45D" stroke-width="0.792258"/>
    <path d="M1613.15 7.86296C1612.91 39.1242 1587.58 64.4033 1556.32 64.5874L1556.37 7.81197L1613.15 7.86296Z" stroke="#8FCFA7" stroke-width="0.792258"/>
    <path d="M1555.95 7.77022L1613.52 -50.1278H1555.95V7.77022Z" stroke="#FEC46D" stroke-width="0.792258"/>
    <rect x="1727.93" y="180.596" width="56.7768" height="56.7768" rx="28.3884" transform="rotate(90 1727.93 180.596)" stroke="#9BB7E0" stroke-width="0.792258"/>
    <rect x="1612.8" y="65.4584" width="56.7768" height="56.7768" rx="28.3884" transform="rotate(90 1612.8 65.4584)" stroke="#9BB7E0" stroke-width="0.792258"/>
    <rect x="1670.37" y="123.356" width="56.7768" height="56.7768" rx="28.3884" transform="rotate(90 1670.37 123.356)" stroke="#58C1A3" stroke-width="0.792258"/>
    <path d="M1671.16 179.804C1671.37 148.543 1696.67 123.241 1727.93 123.029V179.804H1671.16Z" stroke="#FEC46D" stroke-width="0.792258"/>
    <path d="M1613.54 65.5092C1644.8 65.6943 1670.12 90.9742 1670.36 122.235L1613.59 122.285L1613.54 65.5092Z" stroke="#FEE45D" stroke-width="0.792258"/>
    <path d="M1613.59 237.373C1613.8 206.112 1639.1 180.81 1670.37 180.598V237.373H1613.59Z" stroke="#FEE45D" stroke-width="0.792258"/>
    <path d="M1613.15 180.622C1612.91 211.883 1587.58 237.163 1556.32 237.347L1556.37 180.571L1613.15 180.622Z" stroke="#8FCFA7" stroke-width="0.792258"/>
    <rect x="1727.93" y="65.4584" width="56.7768" height="56.7768" transform="rotate(90 1727.93 65.4584)" stroke="#00AB84" stroke-width="0.792258"/>
    <path d="M1555.95 180.529L1613.52 122.631H1555.95V180.529Z" stroke="#FEC46D" stroke-width="0.792258"/>
    <rect x="1555.99" y="294.994" width="56.7768" height="56.7768" rx="28.3884" transform="rotate(-90 1555.99 294.994)" stroke="#9BB7E0" stroke-width="0.792258"/>
    <rect x="1671.13" y="410.133" width="56.7768" height="56.7768" rx="28.3884" transform="rotate(-90 1671.13 410.133)" stroke="#9BB7E0" stroke-width="0.792258"/>
    <rect x="1613.56" y="352.235" width="56.7768" height="56.7768" rx="28.3884" transform="rotate(-90 1613.56 352.235)" stroke="#58C1A3" stroke-width="0.792258"/>
    <path d="M1612.77 295.787C1612.56 327.048 1587.26 352.35 1555.99 352.562V295.787H1612.77Z" stroke="#FEC46D" stroke-width="0.792258"/>
    <path d="M1670.39 410.082C1639.13 409.897 1613.8 384.617 1613.56 353.355L1670.34 353.306L1670.39 410.082Z" stroke="#FEE45D" stroke-width="0.792258"/>
    <path d="M1670.34 238.218C1670.13 269.479 1644.82 294.781 1613.56 294.993V238.218H1670.34Z" stroke="#FEE45D" stroke-width="0.792258"/>
    <path d="M1670.78 294.969C1671.02 263.708 1696.34 238.428 1727.61 238.244L1727.55 295.02L1670.78 294.969Z" stroke="#8FCFA7" stroke-width="0.792258"/>
    <rect x="1555.99" y="410.133" width="56.7768" height="56.7768" transform="rotate(-90 1555.99 410.133)" stroke="#00AB84" stroke-width="0.792258"/>
    <path d="M1727.98 295.062L1670.41 352.96H1727.98V295.062Z" stroke="#FEC46D" stroke-width="0.792258"/>
    <rect x="1612.8" y="410.977" width="56.7768" height="56.7768" rx="28.3884" transform="rotate(90 1612.8 410.977)" stroke="#9BB7E0" stroke-width="0.792258"/>
    <rect x="1670.37" y="468.875" width="56.7768" height="56.7768" rx="28.3884" transform="rotate(90 1670.37 468.875)" stroke="#58C1A3" stroke-width="0.792258"/>
    <path d="M1671.16 525.323C1671.37 494.061 1696.67 468.759 1727.93 468.547V525.323H1671.16Z" stroke="#FEC46D" stroke-width="0.792258"/>
    <path d="M1613.54 411.028C1644.8 411.213 1670.12 436.493 1670.36 467.754L1613.59 467.803L1613.54 411.028Z" stroke="#FEE45D" stroke-width="0.792258"/>
    <rect x="1727.93" y="410.977" width="56.7768" height="56.7768" transform="rotate(90 1727.93 410.977)" stroke="#00AB84" stroke-width="0.792258"/>
    <path d="M1555.95 526.048L1613.52 468.15H1555.95V526.048Z" stroke="#FEC46D" stroke-width="0.792258"/>
    </g>
    </svg>
    